<?xml version="1.0" encoding="utf-8"?>
<!-- Generator: Adobe Illustrator 16.0.0, SVG Export Plug-In . SVG Version: 6.00 Build 0)  -->
<!DOCTYPE svg PUBLIC "-//W3C//DTD SVG 1.1//EN" "http://www.w3.org/Graphics/SVG/1.1/DTD/svg11.dtd">
<svg version="1.1" id="Layer_1" xmlns="http://www.w3.org/2000/svg" xmlns:xlink="http://www.w3.org/1999/xlink" x="0px" y="0px"
	 width="150px" height="200px" viewBox="25 25 150 200" enable-background="new 25 25 150 200" xml:space="preserve">
<pattern  x="0.5" y="225.5" width="57.6" height="57.601" patternUnits="userSpaceOnUse" id="Capsules" viewBox="4.185 -61.865 57.6 57.601" overflow="visible">
	<g>
		<polygon fill="none" points="4.185,-4.264 61.785,-4.264 61.785,-61.865 4.185,-61.865 		"/>
		<g>
			<polygon fill="none" points="4.185,-4.264 61.784,-4.264 61.784,-61.865 4.185,-61.865 			"/>
			<g>
				
					<line fill="none" stroke="#231F20" stroke-width="1.6" stroke-linecap="round" x1="62.291" y1="-18.74" x2="66.441" y2="-17.718"/>
			</g>
			<g>
				
					<line fill="none" stroke="#231F20" stroke-width="1.6" stroke-linecap="round" x1="29.983" y1="-36.064" x2="27.771" y2="-39.722"/>
				
					<line fill="none" stroke="#231F20" stroke-width="1.6" stroke-linecap="round" x1="27.419" y1="-29.172" x2="29.175" y2="-32.394"/>
				
					<line fill="none" stroke="#231F20" stroke-width="1.6" stroke-linecap="round" x1="25.931" y1="-31.615" x2="26.153" y2="-36.432"/>
				
					<line fill="none" stroke="#231F20" stroke-width="1.6" stroke-linecap="round" x1="34.96" y1="-48.379" x2="35.765" y2="-52.578"/>
				
					<line fill="none" stroke="#231F20" stroke-width="1.6" stroke-linecap="round" x1="21.685" y1="-42.957" x2="20.894" y2="-47.158"/>
				
					<line fill="none" stroke="#231F20" stroke-width="1.6" stroke-linecap="round" x1="14.05" y1="-43.42" x2="17.354" y2="-46.132"/>
				
					<line fill="none" stroke="#231F20" stroke-width="1.6" stroke-linecap="round" x1="21.681" y1="-37.703" x2="24.983" y2="-40.414"/>
				
					<line fill="none" stroke="#231F20" stroke-width="1.6" stroke-linecap="round" x1="25.858" y1="-47.652" x2="24.386" y2="-43.639"/>
				
					<line fill="none" stroke="#231F20" stroke-width="1.6" stroke-linecap="round" x1="13.634" y1="-46.271" x2="9.431" y2="-49.865"/>
				
					<line fill="none" stroke="#231F20" stroke-width="1.6" stroke-linecap="round" x1="19.306" y1="-35.562" x2="23.415" y2="-34.383"/>
				
					<line fill="none" stroke="#231F20" stroke-width="1.6" stroke-linecap="round" x1="27.976" y1="-55.166" x2="31.415" y2="-52.623"/>
				
					<line fill="none" stroke="#231F20" stroke-width="1.6" stroke-linecap="round" x1="19.292" y1="-57.033" x2="21.501" y2="-53.373"/>
				
					<line fill="none" stroke="#231F20" stroke-width="1.6" stroke-linecap="round" x1="37.933" y1="-38.41" x2="39.614" y2="-42.342"/>
				
					<line fill="none" stroke="#231F20" stroke-width="1.6" stroke-linecap="round" x1="45.931" y1="-29.115" x2="45.384" y2="-34.865"/>
				
					<line fill="none" stroke="#231F20" stroke-width="1.6" stroke-linecap="round" x1="34.755" y1="-43.16" x2="32.628" y2="-46.869"/>
				
					<line fill="none" stroke="#231F20" stroke-width="1.6" stroke-linecap="round" x1="43.853" y1="-42.994" x2="40.548" y2="-45.707"/>
				
					<line fill="none" stroke="#231F20" stroke-width="1.6" stroke-linecap="round" x1="42.774" y1="-56.313" x2="46.095" y2="-59.006"/>
				
					<line fill="none" stroke="#231F20" stroke-width="1.6" stroke-linecap="round" x1="41.095" y1="-36.733" x2="44.384" y2="-39.464"/>
				
					<line fill="none" stroke="#231F20" stroke-width="1.6" stroke-linecap="round" x1="34.265" y1="-38.851" x2="35.759" y2="-34.845"/>
				
					<line fill="none" stroke="#231F20" stroke-width="1.6" stroke-linecap="round" x1="38.466" y1="-34.73" x2="42.103" y2="-32.483"/>
				
					<line fill="none" stroke="#231F20" stroke-width="1.6" stroke-linecap="round" x1="14.202" y1="-52.188" x2="16.683" y2="-48.707"/>
				
					<line fill="none" stroke="#231F20" stroke-width="1.6" stroke-linecap="round" x1="45.185" y1="-24.648" x2="42.794" y2="-28.191"/>
				
					<line fill="none" stroke="#231F20" stroke-width="1.6" stroke-linecap="round" x1="18.181" y1="-42.115" x2="16.462" y2="-36.899"/>
				
					<line fill="none" stroke="#231F20" stroke-width="1.6" stroke-linecap="round" x1="17.347" y1="-21.41" x2="20.112" y2="-18.15"/>
				
					<line fill="none" stroke="#231F20" stroke-width="1.6" stroke-linecap="round" x1="38.874" y1="-26.127" x2="38.431" y2="-31.615"/>
				
					<line fill="none" stroke="#231F20" stroke-width="1.6" stroke-linecap="round" x1="25.681" y1="-27.615" x2="27.599" y2="-23.005"/>
				
					<line fill="none" stroke="#231F20" stroke-width="1.6" stroke-linecap="round" x1="29.903" y1="-46.32" x2="28.483" y2="-50.352"/>
				
					<line fill="none" stroke="#231F20" stroke-width="1.6" stroke-linecap="round" x1="35.876" y1="-45.904" x2="39.181" y2="-48.615"/>
				
					<line fill="none" stroke="#231F20" stroke-width="1.6" stroke-linecap="round" x1="20.526" y1="-26.197" x2="23.181" y2="-30.865"/>
				
					<line fill="none" stroke="#231F20" stroke-width="1.6" stroke-linecap="round" x1="29.315" y1="-59.381" x2="32.952" y2="-57.133"/>
				
					<line fill="none" stroke="#231F20" stroke-width="1.6" stroke-linecap="round" x1="19.163" y1="-33.182" x2="15.034" y2="-32.076"/>
				
					<line fill="none" stroke="#231F20" stroke-width="1.6" stroke-linecap="round" x1="18.558" y1="-24.584" x2="16.931" y2="-27.615"/>
				
					<line fill="none" stroke="#231F20" stroke-width="1.6" stroke-linecap="round" x1="49.931" y1="-10.115" x2="50.185" y2="-15.264"/>
				
					<line fill="none" stroke="#231F20" stroke-width="1.6" stroke-linecap="round" x1="34.649" y1="-7.619" x2="37.952" y2="-10.332"/>
				
					<line fill="none" stroke="#231F20" stroke-width="1.6" stroke-linecap="round" x1="29.431" y1="-9.615" x2="25.144" y2="-12.602"/>
				
					<line fill="none" stroke="#231F20" stroke-width="1.6" stroke-linecap="round" x1="17.94" y1="-6.539" x2="21.681" y2="-9.115"/>
				
					<line fill="none" stroke="#231F20" stroke-width="1.6" stroke-linecap="round" x1="32.034" y1="-20.769" x2="34.185" y2="-24.464"/>
				
					<line fill="none" stroke="#231F20" stroke-width="1.6" stroke-linecap="round" x1="34.181" y1="-13.365" x2="33.636" y2="-16.746"/>
				
					<line fill="none" stroke="#231F20" stroke-width="1.6" stroke-linecap="round" x1="37.497" y1="-12.91" x2="41.415" y2="-14.623"/>
				
					<line fill="none" stroke="#231F20" stroke-width="1.6" stroke-linecap="round" x1="29.69" y1="-14.033" x2="31.899" y2="-10.371"/>
				
					<line fill="none" stroke="#231F20" stroke-width="1.6" stroke-linecap="round" x1="52.431" y1="-25.365" x2="48.595" y2="-28.752"/>
				
					<line fill="none" stroke="#231F20" stroke-width="1.6" stroke-linecap="round" x1="21.931" y1="-23.865" x2="23.839" y2="-18.965"/>
				
					<line fill="none" stroke="#231F20" stroke-width="1.6" stroke-linecap="round" x1="20.853" y1="-12.843" x2="23.89" y2="-15.852"/>
				
					<line fill="none" stroke="#231F20" stroke-width="1.6" stroke-linecap="round" x1="46.403" y1="-8.969" x2="44.181" y2="-12.865"/>
				
					<line fill="none" stroke="#231F20" stroke-width="1.6" stroke-linecap="round" x1="48.685" y1="-19.358" x2="48.772" y2="-23.633"/>
				
					<line fill="none" stroke="#231F20" stroke-width="1.6" stroke-linecap="round" x1="44.8" y1="-16.654" x2="49.069" y2="-16.865"/>
				
					<line fill="none" stroke="#231F20" stroke-width="1.6" stroke-linecap="round" x1="30.04" y1="-17.219" x2="26.743" y2="-19.942"/>
				
					<line fill="none" stroke="#231F20" stroke-width="1.6" stroke-linecap="round" x1="49.431" y1="-34.947" x2="47.749" y2="-38.877"/>
				
					<line fill="none" stroke="#231F20" stroke-width="1.6" stroke-linecap="round" x1="54.269" y1="-42.85" x2="54.983" y2="-47.064"/>
				
					<line fill="none" stroke="#231F20" stroke-width="1.6" stroke-linecap="round" x1="54.884" y1="-37.865" x2="56.46" y2="-41.839"/>
				
					<line fill="none" stroke="#231F20" stroke-width="1.6" stroke-linecap="round" x1="54.927" y1="-50.945" x2="51.638" y2="-53.677"/>
				
					<line fill="none" stroke="#231F20" stroke-width="1.6" stroke-linecap="round" x1="56.786" y1="-54.507" x2="58.995" y2="-50.847"/>
				
					<line fill="none" stroke="#231F20" stroke-width="1.6" stroke-linecap="round" x1="47.669" y1="-49.512" x2="48.681" y2="-54.615"/>
				
					<line fill="none" stroke="#231F20" stroke-width="1.6" stroke-linecap="round" x1="58.796" y1="-27.604" x2="54.532" y2="-27.281"/>
				
					<line fill="none" stroke="#231F20" stroke-width="1.6" stroke-linecap="round" x1="60.548" y1="-44.474" x2="57.261" y2="-47.207"/>
				
					<line fill="none" stroke="#231F20" stroke-width="1.6" stroke-linecap="round" x1="51.835" y1="-40.695" x2="50.034" y2="-44.572"/>
				
					<line fill="none" stroke="#231F20" stroke-width="1.6" stroke-linecap="round" x1="57.618" y1="-30.461" x2="60.771" y2="-33.348"/>
				
					<line fill="none" stroke="#231F20" stroke-width="1.6" stroke-linecap="round" x1="11.931" y1="-9.615" x2="9.218" y2="-12.615"/>
				
					<line fill="none" stroke="#231F20" stroke-width="1.6" stroke-linecap="round" x1="18.192" y1="-14.474" x2="14.89" y2="-17.188"/>
				
					<line fill="none" stroke="#231F20" stroke-width="1.6" stroke-linecap="round" x1="15.364" y1="-6.809" x2="16.599" y2="-10.904"/>
				
					<line fill="none" stroke="#231F20" stroke-width="1.6" stroke-linecap="round" x1="51.933" y1="-35.011" x2="56.181" y2="-35.49"/>
				
					<line fill="none" stroke="#231F20" stroke-width="1.6" stroke-linecap="round" x1="10.937" y1="-52.072" x2="9.255" y2="-56.002"/>
				
					<line fill="none" stroke="#231F20" stroke-width="1.6" stroke-linecap="round" x1="12.474" y1="-57.231" x2="9.185" y2="-59.961"/>
				
					<line fill="none" stroke="#231F20" stroke-width="1.6" stroke-linecap="round" x1="10.315" y1="-34.168" x2="13.604" y2="-36.9"/>
				
					<line fill="none" stroke="#231F20" stroke-width="1.6" stroke-linecap="round" x1="53.114" y1="-11.38" x2="56.753" y2="-9.133"/>
				
					<line fill="none" stroke="#231F20" stroke-width="1.6" stroke-linecap="round" x1="54.403" y1="-13.882" x2="52.983" y2="-17.914"/>
				<line fill="none" stroke="#231F20" stroke-width="1.6" stroke-linecap="round" x1="4.69" y1="-18.74" x2="8.841" y2="-17.718"/>
				
					<line fill="none" stroke="#231F20" stroke-width="1.6" stroke-linecap="round" x1="6.692" y1="-33.171" x2="8.911" y2="-29.516"/>
				
					<line fill="none" stroke="#231F20" stroke-width="1.6" stroke-linecap="round" x1="9.747" y1="-22.595" x2="6.46" y2="-25.326"/>
				
					<line fill="none" stroke="#231F20" stroke-width="1.6" stroke-linecap="round" x1="11.526" y1="-19.197" x2="13.681" y2="-22.865"/>
				
					<line fill="none" stroke="#231F20" stroke-width="1.6" stroke-linecap="round" x1="9.931" y1="-25.365" x2="12.677" y2="-29.891"/>
				
					<line fill="none" stroke="#231F20" stroke-width="1.6" stroke-linecap="round" x1="8.192" y1="-36.65" x2="7.401" y2="-40.851"/>
				
					<line fill="none" stroke="#231F20" stroke-width="1.6" stroke-linecap="round" x1="13.681" y1="-39.865" x2="9.675" y2="-42.942"/>
				
					<line fill="none" stroke="#231F20" stroke-width="1.6" stroke-linecap="round" x1="15.632" y1="-54.168" x2="15.954" y2="-58.432"/>
				
					<line fill="none" stroke="#231F20" stroke-width="1.6" stroke-linecap="round" x1="38.931" y1="-16.865" x2="34.993" y2="-20.152"/>
				
					<line fill="none" stroke="#231F20" stroke-width="1.6" stroke-linecap="round" x1="41.563" y1="-17.537" x2="43.714" y2="-21.232"/>
				
					<line fill="none" stroke="#231F20" stroke-width="1.6" stroke-linecap="round" x1="37.495" y1="-21.82" x2="41.313" y2="-23.742"/>
				
					<line fill="none" stroke="#231F20" stroke-width="1.6" stroke-linecap="round" x1="32.647" y1="-41.111" x2="29.343" y2="-43.822"/>
				
					<line fill="none" stroke="#231F20" stroke-width="1.6" stroke-linecap="round" x1="24.382" y1="-48.965" x2="20.411" y2="-50.543"/>
				
					<line fill="none" stroke="#231F20" stroke-width="1.6" stroke-linecap="round" x1="24.181" y1="-54.365" x2="26.181" y2="-58.615"/>
				
					<line fill="none" stroke="#231F20" stroke-width="1.6" stroke-linecap="round" x1="40.431" y1="-51.615" x2="44.446" y2="-53.08"/>
				
					<line fill="none" stroke="#231F20" stroke-width="1.6" stroke-linecap="round" x1="41.181" y1="-7.365" x2="40.772" y2="-11.74"/>
				
					<line fill="none" stroke="#231F20" stroke-width="1.6" stroke-linecap="round" x1="45.034" y1="-45.896" x2="43.989" y2="-50.039"/>
				
					<line fill="none" stroke="#231F20" stroke-width="1.6" stroke-linecap="round" x1="40.353" y1="-53.966" x2="36.259" y2="-55.197"/>
				
					<line fill="none" stroke="#231F20" stroke-width="1.6" stroke-linecap="round" x1="36.681" y1="-27.865" x2="32.847" y2="-31.992"/>
				
					<line fill="none" stroke="#231F20" stroke-width="1.6" stroke-linecap="round" x1="54.132" y1="-55.613" x2="55.813" y2="-59.541"/>
				
					<line fill="none" stroke="#231F20" stroke-width="1.6" stroke-linecap="round" x1="60.39" y1="-40.789" x2="63.694" y2="-43.502"/>
				
					<line fill="none" stroke="#231F20" stroke-width="1.6" stroke-linecap="round" x1="61.144" y1="-50.494" x2="64.448" y2="-53.207"/>
				
					<line fill="none" stroke="#231F20" stroke-width="1.6" stroke-linecap="round" x1="58.399" y1="-36.437" x2="62.509" y2="-35.258"/>
				
					<line fill="none" stroke="#231F20" stroke-width="1.6" stroke-linecap="round" x1="60.62" y1="-25.671" x2="62.771" y2="-29.367"/>
				
					<line fill="none" stroke="#231F20" stroke-width="1.6" stroke-linecap="round" x1="62.29" y1="-18.74" x2="66.44" y2="-17.718"/>
				
					<line fill="none" stroke="#231F20" stroke-width="1.6" stroke-linecap="round" x1="63.185" y1="-55.865" x2="59.896" y2="-58.596"/>
				
					<line fill="none" stroke="#231F20" stroke-width="1.6" stroke-linecap="round" x1="55.333" y1="-18.812" x2="57.015" y2="-22.742"/>
				
					<line fill="none" stroke="#231F20" stroke-width="1.6" stroke-linecap="round" x1="64.511" y1="-47.168" x2="60.333" y2="-48.08"/>
				
					<line fill="none" stroke="#231F20" stroke-width="1.6" stroke-linecap="round" x1="55.11" y1="-30.369" x2="49.931" y2="-31.615"/>
				
					<line fill="none" stroke="#231F20" stroke-width="1.6" stroke-linecap="round" x1="10.257" y1="-15.479" x2="13.784" y2="-13.064"/>
				
					<line fill="none" stroke="#231F20" stroke-width="1.6" stroke-linecap="round" x1="49.226" y1="-46.699" x2="52.228" y2="-49.742"/>
				
					<line fill="none" stroke="#231F20" stroke-width="1.6" stroke-linecap="round" x1="57.276" y1="-12.92" x2="59.272" y2="-16.701"/>
				
					<line fill="none" stroke="#231F20" stroke-width="1.6" stroke-linecap="round" x1="63.247" y1="-22.189" x2="58.983" y2="-21.865"/>
				
					<line fill="none" stroke="#231F20" stroke-width="1.6" stroke-linecap="round" x1="30.546" y1="-24.072" x2="31.681" y2="-29.115"/>
				
					<line fill="none" stroke="#231F20" stroke-width="1.6" stroke-linecap="round" x1="46.345" y1="-40.672" x2="47.185" y2="-44.865"/>
				
					<line fill="none" stroke="#231F20" stroke-width="1.6" stroke-linecap="round" x1="51.399" y1="-22.223" x2="55.142" y2="-24.293"/>
				
					<line fill="none" stroke="#231F20" stroke-width="1.6" stroke-linecap="round" x1="39.181" y1="-58.615" x2="36.153" y2="-57.644"/>
				
					<line fill="none" stroke="#231F20" stroke-width="1.6" stroke-linecap="round" x1="24.831" y1="-6.113" x2="24.384" y2="-10.365"/>
				
					<line fill="none" stroke="#231F20" stroke-width="1.6" stroke-linecap="round" x1="6.181" y1="-9.865" x2="7.181" y2="-15.115"/>
				
					<line fill="none" stroke="#231F20" stroke-width="1.6" stroke-linecap="round" x1="60.431" y1="-12.365" x2="61.925" y2="-8.359"/>
				
					<line fill="none" stroke="#231F20" stroke-width="1.6" stroke-linecap="round" x1="51.931" y1="-56.99" x2="50.181" y2="-60.865"/>
				
					<line fill="none" stroke="#231F20" stroke-width="1.6" stroke-linecap="round" x1="48.513" y1="-64.031" x2="44.841" y2="-61.842"/>
				
					<line fill="none" stroke="#231F20" stroke-width="1.6" stroke-linecap="round" x1="33.681" y1="-59.465" x2="31.892" y2="-64.955"/>
				
					<line fill="none" stroke="#231F20" stroke-width="1.6" stroke-linecap="round" x1="25.681" y1="-60.715" x2="28.681" y2="-64.965"/>
				
					<line fill="none" stroke="#231F20" stroke-width="1.6" stroke-linecap="round" x1="55.118" y1="-61.63" x2="51.813" y2="-64.34"/>
				
					<line fill="none" stroke="#231F20" stroke-width="1.6" stroke-linecap="round" x1="12.714" y1="-60.092" x2="11.784" y2="-64.263"/>
				
					<line fill="none" stroke="#231F20" stroke-width="1.6" stroke-linecap="round" x1="19.181" y1="-59.865" x2="15.931" y2="-62.215"/>
				
					<line fill="none" stroke="#231F20" stroke-width="1.6" stroke-linecap="round" x1="5.78" y1="-59.666" x2="6.585" y2="-63.863"/>
				
					<line fill="none" stroke="#231F20" stroke-width="1.6" stroke-linecap="round" x1="58.185" y1="-64.662" x2="60.394" y2="-61.005"/>
				
					<line fill="none" stroke="#231F20" stroke-width="1.6" stroke-linecap="round" x1="38.181" y1="-64.965" x2="38.153" y2="-61.691"/>
				
					<line fill="none" stroke="#231F20" stroke-width="1.6" stroke-linecap="round" x1="21.091" y1="-58.4" x2="21.806" y2="-62.615"/>
				
					<line fill="none" stroke="#231F20" stroke-width="1.6" stroke-linecap="round" x1="41.333" y1="-60.062" x2="43.181" y2="-63.365"/>
			</g>
			<g>
				
					<line fill="none" stroke="#231F20" stroke-width="1.6" stroke-linecap="round" x1="2.79" y1="-40.789" x2="6.095" y2="-43.502"/>
				
					<line fill="none" stroke="#231F20" stroke-width="1.6" stroke-linecap="round" x1="3.544" y1="-50.494" x2="6.849" y2="-53.207"/>
				<line fill="none" stroke="#231F20" stroke-width="1.6" stroke-linecap="round" x1="0.8" y1="-36.437" x2="4.909" y2="-35.258"/>
				
					<line fill="none" stroke="#231F20" stroke-width="1.6" stroke-linecap="round" x1="3.021" y1="-25.671" x2="5.171" y2="-29.367"/>
				<line fill="none" stroke="#231F20" stroke-width="1.6" stroke-linecap="round" x1="4.69" y1="-18.74" x2="8.841" y2="-17.718"/>
				
					<line fill="none" stroke="#231F20" stroke-width="1.6" stroke-linecap="round" x1="5.585" y1="-55.865" x2="2.296" y2="-58.596"/>
				
					<line fill="none" stroke="#231F20" stroke-width="1.6" stroke-linecap="round" x1="6.911" y1="-47.168" x2="2.733" y2="-48.08"/>
				
					<line fill="none" stroke="#231F20" stroke-width="1.6" stroke-linecap="round" x1="5.647" y1="-22.189" x2="1.384" y2="-21.865"/>
				
					<line fill="none" stroke="#231F20" stroke-width="1.6" stroke-linecap="round" x1="2.831" y1="-12.365" x2="4.325" y2="-8.359"/>
			</g>
			<g>
				
					<line fill="none" stroke="#231F20" stroke-width="1.6" stroke-linecap="round" x1="48.513" y1="-6.43" x2="44.841" y2="-4.242"/>
				
					<line fill="none" stroke="#231F20" stroke-width="1.6" stroke-linecap="round" x1="33.681" y1="-1.865" x2="31.892" y2="-7.355"/>
				
					<line fill="none" stroke="#231F20" stroke-width="1.6" stroke-linecap="round" x1="25.681" y1="-3.115" x2="28.681" y2="-7.365"/>
				
					<line fill="none" stroke="#231F20" stroke-width="1.6" stroke-linecap="round" x1="55.118" y1="-4.029" x2="51.813" y2="-6.74"/>
				
					<line fill="none" stroke="#231F20" stroke-width="1.6" stroke-linecap="round" x1="12.714" y1="-2.492" x2="11.784" y2="-6.662"/>
				
					<line fill="none" stroke="#231F20" stroke-width="1.6" stroke-linecap="round" x1="19.181" y1="-2.265" x2="15.931" y2="-4.615"/>
				<line fill="none" stroke="#231F20" stroke-width="1.6" stroke-linecap="round" x1="5.78" y1="-2.065" x2="6.585" y2="-6.263"/>
				
					<line fill="none" stroke="#231F20" stroke-width="1.6" stroke-linecap="round" x1="58.185" y1="-7.062" x2="60.394" y2="-3.404"/>
				
					<line fill="none" stroke="#231F20" stroke-width="1.6" stroke-linecap="round" x1="38.181" y1="-7.365" x2="38.153" y2="-4.091"/>
				<line fill="none" stroke="#231F20" stroke-width="1.6" stroke-linecap="round" x1="21.091" y1="-0.8" x2="21.806" y2="-5.015"/>
				
					<line fill="none" stroke="#231F20" stroke-width="1.6" stroke-linecap="round" x1="41.333" y1="-2.461" x2="43.181" y2="-5.765"/>
			</g>
		</g>
	</g>
</pattern>
<g id="Layer_1_1_">
	<pattern  id="SVGID_1_" xlink:href="#Capsules" patternTransform="matrix(1 0 0 -1 -177.4854 -16259.1357)">
	</pattern>
	<polygon fill="url(#SVGID_1_)" points="145,25 145,55 175,55 	"/>
	<g>
		<polygon fill="#FFFFFF" points="36,214 36,27 143,27 143,57 173,57 173,214 		"/>
		<path d="M142,28v27v3h3h27v154H38V28H142 M145,25H35v190h140V55h-30V25L145,25z"/>
	</g>
	<pattern  id="SVGID_2_" xlink:href="#Capsules" patternTransform="matrix(1 0 0 -1 -177.4854 -16259.1357)">
	</pattern>
	<polygon fill="url(#SVGID_2_)" points="165,215 35,215 35,35 25,35 25,225 165,225 	"/>
	<g>
		<path d="M145,29.121L170.758,55H145V29 M145,25h-3v33h33v-3L145,25L145,25z"/>
	</g>
</g>
<g id="Type">
</g>
</svg>
