<?xml version="1.0" encoding="utf-8"?>
<!-- Generator: Adobe Illustrator 16.0.0, SVG Export Plug-In . SVG Version: 6.00 Build 0)  -->
<!DOCTYPE svg PUBLIC "-//W3C//DTD SVG 1.1//EN" "http://www.w3.org/Graphics/SVG/1.1/DTD/svg11.dtd">
<svg version="1.1" id="Layer_1" xmlns="http://www.w3.org/2000/svg" xmlns:xlink="http://www.w3.org/1999/xlink" x="0px" y="0px"
	 width="125px" height="150px" viewBox="0 0 125 150" enable-background="new 0 0 125 150" xml:space="preserve">
<pattern  x="-37" y="175.5" width="72" height="72" patternUnits="userSpaceOnUse" id="SVGID_1_" viewBox="79.59033 -151.59033 72 72" overflow="visible">
	<g>
		<polygon fill="none" points="79.59033,-79.58984 151.59033,-79.58984 151.59033,-151.59033 79.59033,-151.59033 		"/>
		<g>
			<polygon fill="none" points="79.59033,-79.58984 151.59033,-79.58984 151.59033,-151.59033 79.59033,-151.59033 			"/>
			<g>
				
					<line fill="none" stroke="#231F20" stroke-width="0.3" stroke-linejoin="round" x1="144.10596" y1="-162.10596" x2="162.10596" y2="-144.10596"/>
				
					<line fill="none" stroke="#231F20" stroke-width="0.3" stroke-linejoin="round" x1="144.10596" y1="-168.10596" x2="168.10596" y2="-144.10596"/>
				
					<line fill="none" stroke="#231F20" stroke-width="0.3" stroke-linejoin="round" x1="144.10596" y1="-174.10596" x2="174.10596" y2="-144.10596"/>
				
					<line fill="none" stroke="#231F20" stroke-width="0.3" stroke-linejoin="round" x1="144.10596" y1="-180.10596" x2="180.10596" y2="-144.10596"/>
				
					<line fill="none" stroke="#231F20" stroke-width="0.3" stroke-linejoin="round" x1="144.10596" y1="-186.10596" x2="186.10596" y2="-144.10596"/>
				
					<line fill="none" stroke="#231F20" stroke-width="0.3" stroke-linejoin="round" x1="144.10596" y1="-192.10596" x2="192.10596" y2="-144.10596"/>
				
					<line fill="none" stroke="#231F20" stroke-width="0.3" stroke-linejoin="round" x1="144.10596" y1="-198.10596" x2="198.10596" y2="-144.10596"/>
				
					<line fill="none" stroke="#231F20" stroke-width="0.3" stroke-linejoin="round" x1="144.10596" y1="-204.10596" x2="204.10596" y2="-144.10596"/>
				
					<line fill="none" stroke="#231F20" stroke-width="0.3" stroke-linejoin="round" x1="144.10596" y1="-210.10596" x2="210.10596" y2="-144.10596"/>
				
					<line fill="none" stroke="#231F20" stroke-width="0.3" stroke-linejoin="round" x1="144.10596" y1="-216.10596" x2="216.10596" y2="-144.10596"/>
				
					<line fill="none" stroke="#231F20" stroke-width="0.3" stroke-linejoin="round" x1="144.10596" y1="-222.10596" x2="222.10596" y2="-144.10596"/>
				
					<line fill="none" stroke="#231F20" stroke-width="0.3" stroke-linejoin="round" x1="144.10596" y1="-228.10498" x2="228.10596" y2="-144.10596"/>
				
					<line fill="none" stroke="#231F20" stroke-width="0.3" stroke-linejoin="round" x1="150.10596" y1="-228.10498" x2="228.10596" y2="-150.10596"/>
			</g>
			<g>
				
					<line fill="none" stroke="#231F20" stroke-width="0.3" stroke-linejoin="round" x1="72.10596" y1="-162.10596" x2="90.10596" y2="-144.10596"/>
				
					<line fill="none" stroke="#231F20" stroke-width="0.3" stroke-linejoin="round" x1="72.10596" y1="-168.10596" x2="96.10596" y2="-144.10596"/>
				
					<line fill="none" stroke="#231F20" stroke-width="0.3" stroke-linejoin="round" x1="72.10596" y1="-174.10596" x2="102.10596" y2="-144.10596"/>
				
					<line fill="none" stroke="#231F20" stroke-width="0.3" stroke-linejoin="round" x1="72.10596" y1="-180.10596" x2="108.10596" y2="-144.10596"/>
				
					<line fill="none" stroke="#231F20" stroke-width="0.3" stroke-linejoin="round" x1="72.10596" y1="-186.10596" x2="114.10596" y2="-144.10596"/>
				
					<line fill="none" stroke="#231F20" stroke-width="0.3" stroke-linejoin="round" x1="72.10596" y1="-192.10596" x2="120.10596" y2="-144.10596"/>
				
					<line fill="none" stroke="#231F20" stroke-width="0.3" stroke-linejoin="round" x1="72.10596" y1="-198.10596" x2="126.10596" y2="-144.10596"/>
				
					<line fill="none" stroke="#231F20" stroke-width="0.3" stroke-linejoin="round" x1="72.10596" y1="-204.10596" x2="132.10596" y2="-144.10596"/>
				
					<line fill="none" stroke="#231F20" stroke-width="0.3" stroke-linejoin="round" x1="72.10596" y1="-210.10596" x2="138.10596" y2="-144.10596"/>
				
					<line fill="none" stroke="#231F20" stroke-width="0.3" stroke-linejoin="round" x1="72.10596" y1="-216.10596" x2="144.10596" y2="-144.10596"/>
				
					<line fill="none" stroke="#231F20" stroke-width="0.3" stroke-linejoin="round" x1="72.10596" y1="-222.10596" x2="150.10596" y2="-144.10596"/>
				
					<line fill="none" stroke="#231F20" stroke-width="0.3" stroke-linejoin="round" x1="72.10596" y1="-228.10498" x2="156.10596" y2="-144.10596"/>
				
					<line fill="none" stroke="#231F20" stroke-width="0.3" stroke-linejoin="round" x1="78.10596" y1="-228.10498" x2="156.10596" y2="-150.10596"/>
			</g>
			<g>
				
					<line fill="none" stroke="#231F20" stroke-width="0.3" stroke-linejoin="round" x1="0.10596" y1="-228.10498" x2="84.10596" y2="-144.10596"/>
				
					<line fill="none" stroke="#231F20" stroke-width="0.3" stroke-linejoin="round" x1="6.10596" y1="-228.10498" x2="84.10596" y2="-150.10596"/>
			</g>
			<g>
				
					<line fill="none" stroke="#231F20" stroke-width="0.3" stroke-linejoin="round" x1="144.10596" y1="-90.10547" x2="162.10596" y2="-72.10547"/>
				
					<line fill="none" stroke="#231F20" stroke-width="0.3" stroke-linejoin="round" x1="144.10596" y1="-96.10547" x2="168.10596" y2="-72.10547"/>
				
					<line fill="none" stroke="#231F20" stroke-width="0.3" stroke-linejoin="round" x1="144.10596" y1="-102.10596" x2="174.10596" y2="-72.10547"/>
				
					<line fill="none" stroke="#231F20" stroke-width="0.3" stroke-linejoin="round" x1="144.10596" y1="-108.10596" x2="180.10596" y2="-72.10547"/>
				
					<line fill="none" stroke="#231F20" stroke-width="0.3" stroke-linejoin="round" x1="144.10596" y1="-114.10596" x2="186.10596" y2="-72.10547"/>
				
					<line fill="none" stroke="#231F20" stroke-width="0.3" stroke-linejoin="round" x1="144.10596" y1="-120.10596" x2="192.10596" y2="-72.10547"/>
				
					<line fill="none" stroke="#231F20" stroke-width="0.3" stroke-linejoin="round" x1="144.10596" y1="-126.10596" x2="198.10596" y2="-72.10547"/>
				
					<line fill="none" stroke="#231F20" stroke-width="0.3" stroke-linejoin="round" x1="144.10596" y1="-132.10596" x2="204.10596" y2="-72.10547"/>
				
					<line fill="none" stroke="#231F20" stroke-width="0.3" stroke-linejoin="round" x1="144.10596" y1="-138.10596" x2="210.10596" y2="-72.10547"/>
				
					<line fill="none" stroke="#231F20" stroke-width="0.3" stroke-linejoin="round" x1="144.10596" y1="-144.10596" x2="216.10596" y2="-72.10547"/>
				
					<line fill="none" stroke="#231F20" stroke-width="0.3" stroke-linejoin="round" x1="144.10596" y1="-150.10596" x2="222.10596" y2="-72.10547"/>
				
					<line fill="none" stroke="#231F20" stroke-width="0.3" stroke-linejoin="round" x1="144.10596" y1="-156.10498" x2="228.10596" y2="-72.10547"/>
				
					<line fill="none" stroke="#231F20" stroke-width="0.3" stroke-linejoin="round" x1="150.10596" y1="-156.10498" x2="228.10596" y2="-78.10547"/>
			</g>
			<g>
				
					<line fill="none" stroke="#231F20" stroke-width="0.3" stroke-linejoin="round" x1="72.10596" y1="-90.10547" x2="90.10596" y2="-72.10547"/>
				
					<line fill="none" stroke="#231F20" stroke-width="0.3" stroke-linejoin="round" x1="72.10596" y1="-96.10547" x2="96.10596" y2="-72.10547"/>
				
					<line fill="none" stroke="#231F20" stroke-width="0.3" stroke-linejoin="round" x1="72.10596" y1="-102.10596" x2="102.10596" y2="-72.10547"/>
				
					<line fill="none" stroke="#231F20" stroke-width="0.3" stroke-linejoin="round" x1="72.10596" y1="-108.10596" x2="108.10596" y2="-72.10547"/>
				
					<line fill="none" stroke="#231F20" stroke-width="0.3" stroke-linejoin="round" x1="72.10596" y1="-114.10596" x2="114.10596" y2="-72.10547"/>
				
					<line fill="none" stroke="#231F20" stroke-width="0.3" stroke-linejoin="round" x1="72.10596" y1="-120.10596" x2="120.10596" y2="-72.10547"/>
				
					<line fill="none" stroke="#231F20" stroke-width="0.3" stroke-linejoin="round" x1="72.10596" y1="-126.10596" x2="126.10596" y2="-72.10547"/>
				
					<line fill="none" stroke="#231F20" stroke-width="0.3" stroke-linejoin="round" x1="72.10596" y1="-132.10596" x2="132.10596" y2="-72.10547"/>
				
					<line fill="none" stroke="#231F20" stroke-width="0.3" stroke-linejoin="round" x1="72.10596" y1="-138.10596" x2="138.10596" y2="-72.10547"/>
				
					<line fill="none" stroke="#231F20" stroke-width="0.3" stroke-linejoin="round" x1="72.10596" y1="-144.10596" x2="144.10596" y2="-72.10547"/>
				
					<line fill="none" stroke="#231F20" stroke-width="0.3" stroke-linejoin="round" x1="72.10596" y1="-150.10596" x2="150.10596" y2="-72.10547"/>
				
					<line fill="none" stroke="#231F20" stroke-width="0.3" stroke-linejoin="round" x1="72.10596" y1="-156.10498" x2="156.10596" y2="-72.10547"/>
				
					<line fill="none" stroke="#231F20" stroke-width="0.3" stroke-linejoin="round" x1="78.10596" y1="-156.10498" x2="156.10596" y2="-78.10547"/>
				
					<line fill="none" stroke="#231F20" stroke-width="0.3" stroke-linejoin="round" x1="84.10596" y1="-156.10498" x2="156.10596" y2="-84.10547"/>
				
					<line fill="none" stroke="#231F20" stroke-width="0.3" stroke-linejoin="round" x1="90.10596" y1="-156.10498" x2="156.10596" y2="-90.10547"/>
				
					<line fill="none" stroke="#231F20" stroke-width="0.3" stroke-linejoin="round" x1="96.10596" y1="-156.10498" x2="156.10596" y2="-96.10547"/>
				
					<line fill="none" stroke="#231F20" stroke-width="0.3" stroke-linejoin="round" x1="102.10596" y1="-156.10498" x2="156.10596" y2="-102.10596"/>
				
					<line fill="none" stroke="#231F20" stroke-width="0.3" stroke-linejoin="round" x1="108.10596" y1="-156.10498" x2="156.10596" y2="-108.10596"/>
				
					<line fill="none" stroke="#231F20" stroke-width="0.3" stroke-linejoin="round" x1="114.10596" y1="-156.10498" x2="156.10596" y2="-114.10596"/>
				
					<line fill="none" stroke="#231F20" stroke-width="0.3" stroke-linejoin="round" x1="120.10596" y1="-156.10498" x2="156.10596" y2="-120.10596"/>
				
					<line fill="none" stroke="#231F20" stroke-width="0.3" stroke-linejoin="round" x1="126.10596" y1="-156.10498" x2="156.10596" y2="-126.10596"/>
				
					<line fill="none" stroke="#231F20" stroke-width="0.3" stroke-linejoin="round" x1="132.10596" y1="-156.10498" x2="156.10596" y2="-132.10596"/>
				
					<line fill="none" stroke="#231F20" stroke-width="0.3" stroke-linejoin="round" x1="138.10596" y1="-156.10498" x2="156.10596" y2="-138.10596"/>
				
					<line fill="none" stroke="#231F20" stroke-width="0.3" stroke-linejoin="round" x1="144.10596" y1="-156.10498" x2="156.10596" y2="-144.10596"/>
			</g>
			<g>
				
					<line fill="none" stroke="#231F20" stroke-width="0.3" stroke-linejoin="round" x1="0.10596" y1="-156.10498" x2="84.10596" y2="-72.10547"/>
				
					<line fill="none" stroke="#231F20" stroke-width="0.3" stroke-linejoin="round" x1="6.10596" y1="-156.10498" x2="84.10596" y2="-78.10547"/>
				
					<line fill="none" stroke="#231F20" stroke-width="0.3" stroke-linejoin="round" x1="12.10596" y1="-156.10498" x2="84.10596" y2="-84.10547"/>
				
					<line fill="none" stroke="#231F20" stroke-width="0.3" stroke-linejoin="round" x1="18.10596" y1="-156.10498" x2="84.10596" y2="-90.10547"/>
				
					<line fill="none" stroke="#231F20" stroke-width="0.3" stroke-linejoin="round" x1="24.10596" y1="-156.10498" x2="84.10596" y2="-96.10547"/>
				
					<line fill="none" stroke="#231F20" stroke-width="0.3" stroke-linejoin="round" x1="30.10596" y1="-156.10498" x2="84.10596" y2="-102.10596"/>
				
					<line fill="none" stroke="#231F20" stroke-width="0.3" stroke-linejoin="round" x1="36.10596" y1="-156.10498" x2="84.10596" y2="-108.10596"/>
				
					<line fill="none" stroke="#231F20" stroke-width="0.3" stroke-linejoin="round" x1="42.10596" y1="-156.10498" x2="84.10596" y2="-114.10596"/>
				
					<line fill="none" stroke="#231F20" stroke-width="0.3" stroke-linejoin="round" x1="48.10596" y1="-156.10498" x2="84.10596" y2="-120.10596"/>
				
					<line fill="none" stroke="#231F20" stroke-width="0.3" stroke-linejoin="round" x1="54.10596" y1="-156.10498" x2="84.10596" y2="-126.10596"/>
				
					<line fill="none" stroke="#231F20" stroke-width="0.3" stroke-linejoin="round" x1="60.10596" y1="-156.10498" x2="84.10596" y2="-132.10596"/>
				
					<line fill="none" stroke="#231F20" stroke-width="0.3" stroke-linejoin="round" x1="66.10596" y1="-156.10498" x2="84.10596" y2="-138.10596"/>
				
					<line fill="none" stroke="#231F20" stroke-width="0.3" stroke-linejoin="round" x1="72.10596" y1="-156.10498" x2="84.10596" y2="-144.10596"/>
			</g>
			<g>
				
					<line fill="none" stroke="#231F20" stroke-width="0.3" stroke-linejoin="round" x1="144.10596" y1="-84.10547" x2="228.10596" y2="-0.10547"/>
				
					<line fill="none" stroke="#231F20" stroke-width="0.3" stroke-linejoin="round" x1="150.10596" y1="-84.10547" x2="228.10596" y2="-6.10547"/>
			</g>
			<g>
				
					<line fill="none" stroke="#231F20" stroke-width="0.3" stroke-linejoin="round" x1="72.10596" y1="-84.10547" x2="156.10596" y2="-0.10547"/>
				
					<line fill="none" stroke="#231F20" stroke-width="0.3" stroke-linejoin="round" x1="78.10596" y1="-84.10547" x2="156.10596" y2="-6.10547"/>
				
					<line fill="none" stroke="#231F20" stroke-width="0.3" stroke-linejoin="round" x1="84.10596" y1="-84.10547" x2="156.10596" y2="-12.10547"/>
				
					<line fill="none" stroke="#231F20" stroke-width="0.3" stroke-linejoin="round" x1="90.10596" y1="-84.10547" x2="156.10596" y2="-18.10547"/>
				
					<line fill="none" stroke="#231F20" stroke-width="0.3" stroke-linejoin="round" x1="96.10596" y1="-84.10547" x2="156.10596" y2="-24.10547"/>
				
					<line fill="none" stroke="#231F20" stroke-width="0.3" stroke-linejoin="round" x1="102.10596" y1="-84.10547" x2="156.10596" y2="-30.10547"/>
				
					<line fill="none" stroke="#231F20" stroke-width="0.3" stroke-linejoin="round" x1="108.10596" y1="-84.10547" x2="156.10596" y2="-36.10547"/>
				
					<line fill="none" stroke="#231F20" stroke-width="0.3" stroke-linejoin="round" x1="114.10596" y1="-84.10547" x2="156.10596" y2="-42.10547"/>
				
					<line fill="none" stroke="#231F20" stroke-width="0.3" stroke-linejoin="round" x1="120.10596" y1="-84.10547" x2="156.10596" y2="-48.10547"/>
				
					<line fill="none" stroke="#231F20" stroke-width="0.3" stroke-linejoin="round" x1="126.10596" y1="-84.10547" x2="156.10596" y2="-54.10547"/>
				
					<line fill="none" stroke="#231F20" stroke-width="0.3" stroke-linejoin="round" x1="132.10596" y1="-84.10547" x2="156.10596" y2="-60.10547"/>
				
					<line fill="none" stroke="#231F20" stroke-width="0.3" stroke-linejoin="round" x1="138.10596" y1="-84.10547" x2="156.10596" y2="-66.10547"/>
				
					<line fill="none" stroke="#231F20" stroke-width="0.3" stroke-linejoin="round" x1="144.10596" y1="-84.10547" x2="156.10596" y2="-72.10547"/>
			</g>
			<g>
				
					<line fill="none" stroke="#231F20" stroke-width="0.3" stroke-linejoin="round" x1="0.10596" y1="-84.10547" x2="84.10596" y2="-0.10547"/>
				
					<line fill="none" stroke="#231F20" stroke-width="0.3" stroke-linejoin="round" x1="6.10596" y1="-84.10547" x2="84.10596" y2="-6.10547"/>
				
					<line fill="none" stroke="#231F20" stroke-width="0.3" stroke-linejoin="round" x1="12.10596" y1="-84.10547" x2="84.10596" y2="-12.10547"/>
				
					<line fill="none" stroke="#231F20" stroke-width="0.3" stroke-linejoin="round" x1="18.10596" y1="-84.10547" x2="84.10596" y2="-18.10547"/>
				
					<line fill="none" stroke="#231F20" stroke-width="0.3" stroke-linejoin="round" x1="24.10596" y1="-84.10547" x2="84.10596" y2="-24.10547"/>
				
					<line fill="none" stroke="#231F20" stroke-width="0.3" stroke-linejoin="round" x1="30.10596" y1="-84.10547" x2="84.10596" y2="-30.10547"/>
				
					<line fill="none" stroke="#231F20" stroke-width="0.3" stroke-linejoin="round" x1="36.10596" y1="-84.10547" x2="84.10596" y2="-36.10547"/>
				
					<line fill="none" stroke="#231F20" stroke-width="0.3" stroke-linejoin="round" x1="42.10596" y1="-84.10547" x2="84.10596" y2="-42.10547"/>
				
					<line fill="none" stroke="#231F20" stroke-width="0.3" stroke-linejoin="round" x1="48.10596" y1="-84.10547" x2="84.10596" y2="-48.10547"/>
				
					<line fill="none" stroke="#231F20" stroke-width="0.3" stroke-linejoin="round" x1="54.10596" y1="-84.10547" x2="84.10596" y2="-54.10547"/>
				
					<line fill="none" stroke="#231F20" stroke-width="0.3" stroke-linejoin="round" x1="60.10596" y1="-84.10547" x2="84.10596" y2="-60.10547"/>
				
					<line fill="none" stroke="#231F20" stroke-width="0.3" stroke-linejoin="round" x1="66.10596" y1="-84.10547" x2="84.10596" y2="-66.10547"/>
				
					<line fill="none" stroke="#231F20" stroke-width="0.3" stroke-linejoin="round" x1="72.10596" y1="-84.10547" x2="84.10596" y2="-72.10547"/>
			</g>
		</g>
	</g>
</pattern>
<pattern  x="-37" y="175.5" width="72" height="72" patternUnits="userSpaceOnUse" id="SVGID_2_" viewBox="79.59033 -151.59033 72 72" overflow="visible">
	<g>
		<polygon fill="none" points="79.59033,-79.58984 151.59033,-79.58984 151.59033,-151.59033 79.59033,-151.59033 		"/>
		<g>
			<polygon fill="none" points="79.59033,-79.58984 151.59033,-79.58984 151.59033,-151.59033 79.59033,-151.59033 			"/>
			<g>
				
					<line fill="none" stroke="#231F20" stroke-width="0.3" stroke-linejoin="round" x1="144.10596" y1="-162.10596" x2="162.10596" y2="-144.10596"/>
				
					<line fill="none" stroke="#231F20" stroke-width="0.3" stroke-linejoin="round" x1="144.10596" y1="-168.10596" x2="168.10596" y2="-144.10596"/>
				
					<line fill="none" stroke="#231F20" stroke-width="0.3" stroke-linejoin="round" x1="144.10596" y1="-174.10596" x2="174.10596" y2="-144.10596"/>
				
					<line fill="none" stroke="#231F20" stroke-width="0.3" stroke-linejoin="round" x1="144.10596" y1="-180.10596" x2="180.10596" y2="-144.10596"/>
				
					<line fill="none" stroke="#231F20" stroke-width="0.3" stroke-linejoin="round" x1="144.10596" y1="-186.10596" x2="186.10596" y2="-144.10596"/>
				
					<line fill="none" stroke="#231F20" stroke-width="0.3" stroke-linejoin="round" x1="144.10596" y1="-192.10596" x2="192.10596" y2="-144.10596"/>
				
					<line fill="none" stroke="#231F20" stroke-width="0.3" stroke-linejoin="round" x1="144.10596" y1="-198.10596" x2="198.10596" y2="-144.10596"/>
				
					<line fill="none" stroke="#231F20" stroke-width="0.3" stroke-linejoin="round" x1="144.10596" y1="-204.10596" x2="204.10596" y2="-144.10596"/>
				
					<line fill="none" stroke="#231F20" stroke-width="0.3" stroke-linejoin="round" x1="144.10596" y1="-210.10596" x2="210.10596" y2="-144.10596"/>
				
					<line fill="none" stroke="#231F20" stroke-width="0.3" stroke-linejoin="round" x1="144.10596" y1="-216.10596" x2="216.10596" y2="-144.10596"/>
				
					<line fill="none" stroke="#231F20" stroke-width="0.3" stroke-linejoin="round" x1="144.10596" y1="-222.10596" x2="222.10596" y2="-144.10596"/>
				
					<line fill="none" stroke="#231F20" stroke-width="0.3" stroke-linejoin="round" x1="144.10596" y1="-228.10498" x2="228.10596" y2="-144.10596"/>
				
					<line fill="none" stroke="#231F20" stroke-width="0.3" stroke-linejoin="round" x1="150.10596" y1="-228.10498" x2="228.10596" y2="-150.10596"/>
			</g>
			<g>
				
					<line fill="none" stroke="#231F20" stroke-width="0.3" stroke-linejoin="round" x1="72.10596" y1="-162.10596" x2="90.10596" y2="-144.10596"/>
				
					<line fill="none" stroke="#231F20" stroke-width="0.3" stroke-linejoin="round" x1="72.10596" y1="-168.10596" x2="96.10596" y2="-144.10596"/>
				
					<line fill="none" stroke="#231F20" stroke-width="0.3" stroke-linejoin="round" x1="72.10596" y1="-174.10596" x2="102.10596" y2="-144.10596"/>
				
					<line fill="none" stroke="#231F20" stroke-width="0.3" stroke-linejoin="round" x1="72.10596" y1="-180.10596" x2="108.10596" y2="-144.10596"/>
				
					<line fill="none" stroke="#231F20" stroke-width="0.3" stroke-linejoin="round" x1="72.10596" y1="-186.10596" x2="114.10596" y2="-144.10596"/>
				
					<line fill="none" stroke="#231F20" stroke-width="0.3" stroke-linejoin="round" x1="72.10596" y1="-192.10596" x2="120.10596" y2="-144.10596"/>
				
					<line fill="none" stroke="#231F20" stroke-width="0.3" stroke-linejoin="round" x1="72.10596" y1="-198.10596" x2="126.10596" y2="-144.10596"/>
				
					<line fill="none" stroke="#231F20" stroke-width="0.3" stroke-linejoin="round" x1="72.10596" y1="-204.10596" x2="132.10596" y2="-144.10596"/>
				
					<line fill="none" stroke="#231F20" stroke-width="0.3" stroke-linejoin="round" x1="72.10596" y1="-210.10596" x2="138.10596" y2="-144.10596"/>
				
					<line fill="none" stroke="#231F20" stroke-width="0.3" stroke-linejoin="round" x1="72.10596" y1="-216.10596" x2="144.10596" y2="-144.10596"/>
				
					<line fill="none" stroke="#231F20" stroke-width="0.3" stroke-linejoin="round" x1="72.10596" y1="-222.10596" x2="150.10596" y2="-144.10596"/>
				
					<line fill="none" stroke="#231F20" stroke-width="0.3" stroke-linejoin="round" x1="72.10596" y1="-228.10498" x2="156.10596" y2="-144.10596"/>
				
					<line fill="none" stroke="#231F20" stroke-width="0.3" stroke-linejoin="round" x1="78.10596" y1="-228.10498" x2="156.10596" y2="-150.10596"/>
			</g>
			<g>
				
					<line fill="none" stroke="#231F20" stroke-width="0.3" stroke-linejoin="round" x1="0.10596" y1="-228.10498" x2="84.10596" y2="-144.10596"/>
				
					<line fill="none" stroke="#231F20" stroke-width="0.3" stroke-linejoin="round" x1="6.10596" y1="-228.10498" x2="84.10596" y2="-150.10596"/>
			</g>
			<g>
				
					<line fill="none" stroke="#231F20" stroke-width="0.3" stroke-linejoin="round" x1="144.10596" y1="-90.10547" x2="162.10596" y2="-72.10547"/>
				
					<line fill="none" stroke="#231F20" stroke-width="0.3" stroke-linejoin="round" x1="144.10596" y1="-96.10547" x2="168.10596" y2="-72.10547"/>
				
					<line fill="none" stroke="#231F20" stroke-width="0.3" stroke-linejoin="round" x1="144.10596" y1="-102.10596" x2="174.10596" y2="-72.10547"/>
				
					<line fill="none" stroke="#231F20" stroke-width="0.3" stroke-linejoin="round" x1="144.10596" y1="-108.10596" x2="180.10596" y2="-72.10547"/>
				
					<line fill="none" stroke="#231F20" stroke-width="0.3" stroke-linejoin="round" x1="144.10596" y1="-114.10596" x2="186.10596" y2="-72.10547"/>
				
					<line fill="none" stroke="#231F20" stroke-width="0.3" stroke-linejoin="round" x1="144.10596" y1="-120.10596" x2="192.10596" y2="-72.10547"/>
				
					<line fill="none" stroke="#231F20" stroke-width="0.3" stroke-linejoin="round" x1="144.10596" y1="-126.10596" x2="198.10596" y2="-72.10547"/>
				
					<line fill="none" stroke="#231F20" stroke-width="0.3" stroke-linejoin="round" x1="144.10596" y1="-132.10596" x2="204.10596" y2="-72.10547"/>
				
					<line fill="none" stroke="#231F20" stroke-width="0.3" stroke-linejoin="round" x1="144.10596" y1="-138.10596" x2="210.10596" y2="-72.10547"/>
				
					<line fill="none" stroke="#231F20" stroke-width="0.3" stroke-linejoin="round" x1="144.10596" y1="-144.10596" x2="216.10596" y2="-72.10547"/>
				
					<line fill="none" stroke="#231F20" stroke-width="0.3" stroke-linejoin="round" x1="144.10596" y1="-150.10596" x2="222.10596" y2="-72.10547"/>
				
					<line fill="none" stroke="#231F20" stroke-width="0.3" stroke-linejoin="round" x1="144.10596" y1="-156.10498" x2="228.10596" y2="-72.10547"/>
				
					<line fill="none" stroke="#231F20" stroke-width="0.3" stroke-linejoin="round" x1="150.10596" y1="-156.10498" x2="228.10596" y2="-78.10547"/>
			</g>
			<g>
				
					<line fill="none" stroke="#231F20" stroke-width="0.3" stroke-linejoin="round" x1="72.10596" y1="-90.10547" x2="90.10596" y2="-72.10547"/>
				
					<line fill="none" stroke="#231F20" stroke-width="0.3" stroke-linejoin="round" x1="72.10596" y1="-96.10547" x2="96.10596" y2="-72.10547"/>
				
					<line fill="none" stroke="#231F20" stroke-width="0.3" stroke-linejoin="round" x1="72.10596" y1="-102.10596" x2="102.10596" y2="-72.10547"/>
				
					<line fill="none" stroke="#231F20" stroke-width="0.3" stroke-linejoin="round" x1="72.10596" y1="-108.10596" x2="108.10596" y2="-72.10547"/>
				
					<line fill="none" stroke="#231F20" stroke-width="0.3" stroke-linejoin="round" x1="72.10596" y1="-114.10596" x2="114.10596" y2="-72.10547"/>
				
					<line fill="none" stroke="#231F20" stroke-width="0.3" stroke-linejoin="round" x1="72.10596" y1="-120.10596" x2="120.10596" y2="-72.10547"/>
				
					<line fill="none" stroke="#231F20" stroke-width="0.3" stroke-linejoin="round" x1="72.10596" y1="-126.10596" x2="126.10596" y2="-72.10547"/>
				
					<line fill="none" stroke="#231F20" stroke-width="0.3" stroke-linejoin="round" x1="72.10596" y1="-132.10596" x2="132.10596" y2="-72.10547"/>
				
					<line fill="none" stroke="#231F20" stroke-width="0.3" stroke-linejoin="round" x1="72.10596" y1="-138.10596" x2="138.10596" y2="-72.10547"/>
				
					<line fill="none" stroke="#231F20" stroke-width="0.3" stroke-linejoin="round" x1="72.10596" y1="-144.10596" x2="144.10596" y2="-72.10547"/>
				
					<line fill="none" stroke="#231F20" stroke-width="0.3" stroke-linejoin="round" x1="72.10596" y1="-150.10596" x2="150.10596" y2="-72.10547"/>
				
					<line fill="none" stroke="#231F20" stroke-width="0.3" stroke-linejoin="round" x1="72.10596" y1="-156.10498" x2="156.10596" y2="-72.10547"/>
				
					<line fill="none" stroke="#231F20" stroke-width="0.3" stroke-linejoin="round" x1="78.10596" y1="-156.10498" x2="156.10596" y2="-78.10547"/>
				
					<line fill="none" stroke="#231F20" stroke-width="0.3" stroke-linejoin="round" x1="84.10596" y1="-156.10498" x2="156.10596" y2="-84.10547"/>
				
					<line fill="none" stroke="#231F20" stroke-width="0.3" stroke-linejoin="round" x1="90.10596" y1="-156.10498" x2="156.10596" y2="-90.10547"/>
				
					<line fill="none" stroke="#231F20" stroke-width="0.3" stroke-linejoin="round" x1="96.10596" y1="-156.10498" x2="156.10596" y2="-96.10547"/>
				
					<line fill="none" stroke="#231F20" stroke-width="0.3" stroke-linejoin="round" x1="102.10596" y1="-156.10498" x2="156.10596" y2="-102.10596"/>
				
					<line fill="none" stroke="#231F20" stroke-width="0.3" stroke-linejoin="round" x1="108.10596" y1="-156.10498" x2="156.10596" y2="-108.10596"/>
				
					<line fill="none" stroke="#231F20" stroke-width="0.3" stroke-linejoin="round" x1="114.10596" y1="-156.10498" x2="156.10596" y2="-114.10596"/>
				
					<line fill="none" stroke="#231F20" stroke-width="0.3" stroke-linejoin="round" x1="120.10596" y1="-156.10498" x2="156.10596" y2="-120.10596"/>
				
					<line fill="none" stroke="#231F20" stroke-width="0.3" stroke-linejoin="round" x1="126.10596" y1="-156.10498" x2="156.10596" y2="-126.10596"/>
				
					<line fill="none" stroke="#231F20" stroke-width="0.3" stroke-linejoin="round" x1="132.10596" y1="-156.10498" x2="156.10596" y2="-132.10596"/>
				
					<line fill="none" stroke="#231F20" stroke-width="0.3" stroke-linejoin="round" x1="138.10596" y1="-156.10498" x2="156.10596" y2="-138.10596"/>
				
					<line fill="none" stroke="#231F20" stroke-width="0.3" stroke-linejoin="round" x1="144.10596" y1="-156.10498" x2="156.10596" y2="-144.10596"/>
			</g>
			<g>
				
					<line fill="none" stroke="#231F20" stroke-width="0.3" stroke-linejoin="round" x1="0.10596" y1="-156.10498" x2="84.10596" y2="-72.10547"/>
				
					<line fill="none" stroke="#231F20" stroke-width="0.3" stroke-linejoin="round" x1="6.10596" y1="-156.10498" x2="84.10596" y2="-78.10547"/>
				
					<line fill="none" stroke="#231F20" stroke-width="0.3" stroke-linejoin="round" x1="12.10596" y1="-156.10498" x2="84.10596" y2="-84.10547"/>
				
					<line fill="none" stroke="#231F20" stroke-width="0.3" stroke-linejoin="round" x1="18.10596" y1="-156.10498" x2="84.10596" y2="-90.10547"/>
				
					<line fill="none" stroke="#231F20" stroke-width="0.3" stroke-linejoin="round" x1="24.10596" y1="-156.10498" x2="84.10596" y2="-96.10547"/>
				
					<line fill="none" stroke="#231F20" stroke-width="0.3" stroke-linejoin="round" x1="30.10596" y1="-156.10498" x2="84.10596" y2="-102.10596"/>
				
					<line fill="none" stroke="#231F20" stroke-width="0.3" stroke-linejoin="round" x1="36.10596" y1="-156.10498" x2="84.10596" y2="-108.10596"/>
				
					<line fill="none" stroke="#231F20" stroke-width="0.3" stroke-linejoin="round" x1="42.10596" y1="-156.10498" x2="84.10596" y2="-114.10596"/>
				
					<line fill="none" stroke="#231F20" stroke-width="0.3" stroke-linejoin="round" x1="48.10596" y1="-156.10498" x2="84.10596" y2="-120.10596"/>
				
					<line fill="none" stroke="#231F20" stroke-width="0.3" stroke-linejoin="round" x1="54.10596" y1="-156.10498" x2="84.10596" y2="-126.10596"/>
				
					<line fill="none" stroke="#231F20" stroke-width="0.3" stroke-linejoin="round" x1="60.10596" y1="-156.10498" x2="84.10596" y2="-132.10596"/>
				
					<line fill="none" stroke="#231F20" stroke-width="0.3" stroke-linejoin="round" x1="66.10596" y1="-156.10498" x2="84.10596" y2="-138.10596"/>
				
					<line fill="none" stroke="#231F20" stroke-width="0.3" stroke-linejoin="round" x1="72.10596" y1="-156.10498" x2="84.10596" y2="-144.10596"/>
			</g>
			<g>
				
					<line fill="none" stroke="#231F20" stroke-width="0.3" stroke-linejoin="round" x1="144.10596" y1="-84.10547" x2="228.10596" y2="-0.10547"/>
				
					<line fill="none" stroke="#231F20" stroke-width="0.3" stroke-linejoin="round" x1="150.10596" y1="-84.10547" x2="228.10596" y2="-6.10547"/>
			</g>
			<g>
				
					<line fill="none" stroke="#231F20" stroke-width="0.3" stroke-linejoin="round" x1="72.10596" y1="-84.10547" x2="156.10596" y2="-0.10547"/>
				
					<line fill="none" stroke="#231F20" stroke-width="0.3" stroke-linejoin="round" x1="78.10596" y1="-84.10547" x2="156.10596" y2="-6.10547"/>
				
					<line fill="none" stroke="#231F20" stroke-width="0.3" stroke-linejoin="round" x1="84.10596" y1="-84.10547" x2="156.10596" y2="-12.10547"/>
				
					<line fill="none" stroke="#231F20" stroke-width="0.3" stroke-linejoin="round" x1="90.10596" y1="-84.10547" x2="156.10596" y2="-18.10547"/>
				
					<line fill="none" stroke="#231F20" stroke-width="0.3" stroke-linejoin="round" x1="96.10596" y1="-84.10547" x2="156.10596" y2="-24.10547"/>
				
					<line fill="none" stroke="#231F20" stroke-width="0.3" stroke-linejoin="round" x1="102.10596" y1="-84.10547" x2="156.10596" y2="-30.10547"/>
				
					<line fill="none" stroke="#231F20" stroke-width="0.3" stroke-linejoin="round" x1="108.10596" y1="-84.10547" x2="156.10596" y2="-36.10547"/>
				
					<line fill="none" stroke="#231F20" stroke-width="0.3" stroke-linejoin="round" x1="114.10596" y1="-84.10547" x2="156.10596" y2="-42.10547"/>
				
					<line fill="none" stroke="#231F20" stroke-width="0.3" stroke-linejoin="round" x1="120.10596" y1="-84.10547" x2="156.10596" y2="-48.10547"/>
				
					<line fill="none" stroke="#231F20" stroke-width="0.3" stroke-linejoin="round" x1="126.10596" y1="-84.10547" x2="156.10596" y2="-54.10547"/>
				
					<line fill="none" stroke="#231F20" stroke-width="0.3" stroke-linejoin="round" x1="132.10596" y1="-84.10547" x2="156.10596" y2="-60.10547"/>
				
					<line fill="none" stroke="#231F20" stroke-width="0.3" stroke-linejoin="round" x1="138.10596" y1="-84.10547" x2="156.10596" y2="-66.10547"/>
				
					<line fill="none" stroke="#231F20" stroke-width="0.3" stroke-linejoin="round" x1="144.10596" y1="-84.10547" x2="156.10596" y2="-72.10547"/>
			</g>
			<g>
				
					<line fill="none" stroke="#231F20" stroke-width="0.3" stroke-linejoin="round" x1="0.10596" y1="-84.10547" x2="84.10596" y2="-0.10547"/>
				
					<line fill="none" stroke="#231F20" stroke-width="0.3" stroke-linejoin="round" x1="6.10596" y1="-84.10547" x2="84.10596" y2="-6.10547"/>
				
					<line fill="none" stroke="#231F20" stroke-width="0.3" stroke-linejoin="round" x1="12.10596" y1="-84.10547" x2="84.10596" y2="-12.10547"/>
				
					<line fill="none" stroke="#231F20" stroke-width="0.3" stroke-linejoin="round" x1="18.10596" y1="-84.10547" x2="84.10596" y2="-18.10547"/>
				
					<line fill="none" stroke="#231F20" stroke-width="0.3" stroke-linejoin="round" x1="24.10596" y1="-84.10547" x2="84.10596" y2="-24.10547"/>
				
					<line fill="none" stroke="#231F20" stroke-width="0.3" stroke-linejoin="round" x1="30.10596" y1="-84.10547" x2="84.10596" y2="-30.10547"/>
				
					<line fill="none" stroke="#231F20" stroke-width="0.3" stroke-linejoin="round" x1="36.10596" y1="-84.10547" x2="84.10596" y2="-36.10547"/>
				
					<line fill="none" stroke="#231F20" stroke-width="0.3" stroke-linejoin="round" x1="42.10596" y1="-84.10547" x2="84.10596" y2="-42.10547"/>
				
					<line fill="none" stroke="#231F20" stroke-width="0.3" stroke-linejoin="round" x1="48.10596" y1="-84.10547" x2="84.10596" y2="-48.10547"/>
				
					<line fill="none" stroke="#231F20" stroke-width="0.3" stroke-linejoin="round" x1="54.10596" y1="-84.10547" x2="84.10596" y2="-54.10547"/>
				
					<line fill="none" stroke="#231F20" stroke-width="0.3" stroke-linejoin="round" x1="60.10596" y1="-84.10547" x2="84.10596" y2="-60.10547"/>
				
					<line fill="none" stroke="#231F20" stroke-width="0.3" stroke-linejoin="round" x1="66.10596" y1="-84.10547" x2="84.10596" y2="-66.10547"/>
				
					<line fill="none" stroke="#231F20" stroke-width="0.3" stroke-linejoin="round" x1="72.10596" y1="-84.10547" x2="84.10596" y2="-72.10547"/>
			</g>
		</g>
	</g>
</pattern>
<g id="Layer_2">
</g>
<pattern  id="SVGID_3_" xlink:href="#SVGID_1_" patternTransform="matrix(1 0 0 -1 -308.59033 -16558.30078)">
</pattern>
<polygon fill="url(#SVGID_3_)" points="95,0 95,30 125,30 "/>
<polygon fill="#00FF94" points="12,138 12,2 93,2 93,32 123,31.99951 123,138 "/>
<path d="M91,4v26v4h4l26-0.00049V136H14V4H91 M95,0H10v140h115V30H95V0L95,0z"/>
<pattern  id="SVGID_4_" xlink:href="#SVGID_2_" patternTransform="matrix(1 0 0 -1 -283.59033 -16508.30078)">
</pattern>
<polygon fill="url(#SVGID_4_)" points="115,140 10,140 10,10 0,10 0,150 115,150 "/>
<g>
	<path d="M95,5.82812L119.34277,30H95V6 M95,0h-4v34h34v-4L95,0L95,0z"/>
</g>
<g id="Type">
</g>
</svg>
