<?xml version="1.0" encoding="utf-8"?>
<!-- Generator: Adobe Illustrator 16.0.0, SVG Export Plug-In . SVG Version: 6.00 Build 0)  -->
<!DOCTYPE svg PUBLIC "-//W3C//DTD SVG 1.1//EN" "http://www.w3.org/Graphics/SVG/1.1/DTD/svg11.dtd">
<svg version="1.1" xmlns="http://www.w3.org/2000/svg" xmlns:xlink="http://www.w3.org/1999/xlink" x="0px" y="0px" width="125px"
	 height="150px" viewBox="0 0 125 150" enable-background="new 0 0 125 150" xml:space="preserve">
<pattern  x="-50" y="-25" width="72" height="71.99999" patternUnits="userSpaceOnUse" id="Diagonal_Lines" viewBox="79.5903 -148.62109 72 71.99999" overflow="visible">
	<g>
		<polygon fill="none" points="79.59033,-148.62109 151.59033,-148.62109 151.59033,-76.62109 79.59033,-76.62109 		"/>
		<g>
			
				<line fill="none" stroke="#231F20" stroke-width="0.3" stroke-linejoin="round" x1="144.10596" y1="-66.10547" x2="162.10596" y2="-84.10547"/>
			
				<line fill="none" stroke="#231F20" stroke-width="0.3" stroke-linejoin="round" x1="144.10596" y1="-60.10547" x2="168.10596" y2="-84.10547"/>
			
				<line fill="none" stroke="#231F20" stroke-width="0.3" stroke-linejoin="round" x1="144.10596" y1="-54.10547" x2="174.10596" y2="-84.10547"/>
			
				<line fill="none" stroke="#231F20" stroke-width="0.3" stroke-linejoin="round" x1="144.10596" y1="-48.10547" x2="180.10596" y2="-84.10547"/>
			
				<line fill="none" stroke="#231F20" stroke-width="0.3" stroke-linejoin="round" x1="144.10596" y1="-42.10547" x2="186.10596" y2="-84.10547"/>
			
				<line fill="none" stroke="#231F20" stroke-width="0.3" stroke-linejoin="round" x1="144.10596" y1="-36.10547" x2="192.10596" y2="-84.10547"/>
			
				<line fill="none" stroke="#231F20" stroke-width="0.3" stroke-linejoin="round" x1="144.10596" y1="-30.10547" x2="198.10596" y2="-84.10547"/>
			
				<line fill="none" stroke="#231F20" stroke-width="0.3" stroke-linejoin="round" x1="144.10596" y1="-24.10547" x2="204.10596" y2="-84.10547"/>
			
				<line fill="none" stroke="#231F20" stroke-width="0.3" stroke-linejoin="round" x1="144.10596" y1="-18.10547" x2="210.10596" y2="-84.10547"/>
			
				<line fill="none" stroke="#231F20" stroke-width="0.3" stroke-linejoin="round" x1="144.10596" y1="-12.10547" x2="216.10596" y2="-84.10547"/>
			
				<line fill="none" stroke="#231F20" stroke-width="0.3" stroke-linejoin="round" x1="144.10596" y1="-6.10547" x2="222.10596" y2="-84.10547"/>
			
				<line fill="none" stroke="#231F20" stroke-width="0.3" stroke-linejoin="round" x1="144.10596" y1="-0.10645" x2="228.10596" y2="-84.10547"/>
			
				<line fill="none" stroke="#231F20" stroke-width="0.3" stroke-linejoin="round" x1="150.10596" y1="-0.10645" x2="228.10596" y2="-78.10547"/>
		</g>
		<g>
			
				<line fill="none" stroke="#231F20" stroke-width="0.3" stroke-linejoin="round" x1="72.10596" y1="-66.10547" x2="90.10596" y2="-84.10547"/>
			
				<line fill="none" stroke="#231F20" stroke-width="0.3" stroke-linejoin="round" x1="72.10596" y1="-60.10547" x2="96.10596" y2="-84.10547"/>
			
				<line fill="none" stroke="#231F20" stroke-width="0.3" stroke-linejoin="round" x1="72.10596" y1="-54.10547" x2="102.10596" y2="-84.10547"/>
			
				<line fill="none" stroke="#231F20" stroke-width="0.3" stroke-linejoin="round" x1="72.10596" y1="-48.10547" x2="108.10596" y2="-84.10547"/>
			
				<line fill="none" stroke="#231F20" stroke-width="0.3" stroke-linejoin="round" x1="72.10596" y1="-42.10547" x2="114.10596" y2="-84.10547"/>
			
				<line fill="none" stroke="#231F20" stroke-width="0.3" stroke-linejoin="round" x1="72.10596" y1="-36.10547" x2="120.10596" y2="-84.10547"/>
			
				<line fill="none" stroke="#231F20" stroke-width="0.3" stroke-linejoin="round" x1="72.10596" y1="-30.10547" x2="126.10596" y2="-84.10547"/>
			
				<line fill="none" stroke="#231F20" stroke-width="0.3" stroke-linejoin="round" x1="72.10596" y1="-24.10547" x2="132.10596" y2="-84.10547"/>
			
				<line fill="none" stroke="#231F20" stroke-width="0.3" stroke-linejoin="round" x1="72.10596" y1="-18.10547" x2="138.10596" y2="-84.10547"/>
			
				<line fill="none" stroke="#231F20" stroke-width="0.3" stroke-linejoin="round" x1="72.10596" y1="-12.10547" x2="144.10596" y2="-84.10547"/>
			
				<line fill="none" stroke="#231F20" stroke-width="0.3" stroke-linejoin="round" x1="72.10596" y1="-6.10547" x2="150.10596" y2="-84.10547"/>
			
				<line fill="none" stroke="#231F20" stroke-width="0.3" stroke-linejoin="round" x1="72.10596" y1="-0.10645" x2="156.10596" y2="-84.10547"/>
			
				<line fill="none" stroke="#231F20" stroke-width="0.3" stroke-linejoin="round" x1="78.10596" y1="-0.10645" x2="156.10596" y2="-78.10547"/>
		</g>
		<g>
			
				<line fill="none" stroke="#231F20" stroke-width="0.3" stroke-linejoin="round" x1="0.10596" y1="-0.10645" x2="84.10596" y2="-84.10547"/>
			
				<line fill="none" stroke="#231F20" stroke-width="0.3" stroke-linejoin="round" x1="6.10596" y1="-0.10645" x2="84.10596" y2="-78.10547"/>
		</g>
		<g>
			
				<line fill="none" stroke="#231F20" stroke-width="0.3" stroke-linejoin="round" x1="144.10596" y1="-138.10547" x2="162.10596" y2="-156.10547"/>
			
				<line fill="none" stroke="#231F20" stroke-width="0.3" stroke-linejoin="round" x1="144.10596" y1="-132.10547" x2="168.10596" y2="-156.10547"/>
			
				<line fill="none" stroke="#231F20" stroke-width="0.3" stroke-linejoin="round" x1="144.10596" y1="-126.10547" x2="174.10596" y2="-156.10547"/>
			
				<line fill="none" stroke="#231F20" stroke-width="0.3" stroke-linejoin="round" x1="144.10596" y1="-120.10547" x2="180.10596" y2="-156.10547"/>
			
				<line fill="none" stroke="#231F20" stroke-width="0.3" stroke-linejoin="round" x1="144.10596" y1="-114.10547" x2="186.10596" y2="-156.10547"/>
			
				<line fill="none" stroke="#231F20" stroke-width="0.3" stroke-linejoin="round" x1="144.10596" y1="-108.10547" x2="192.10596" y2="-156.10547"/>
			
				<line fill="none" stroke="#231F20" stroke-width="0.3" stroke-linejoin="round" x1="144.10596" y1="-102.10547" x2="198.10596" y2="-156.10547"/>
			
				<line fill="none" stroke="#231F20" stroke-width="0.3" stroke-linejoin="round" x1="144.10596" y1="-96.10547" x2="204.10596" y2="-156.10547"/>
			
				<line fill="none" stroke="#231F20" stroke-width="0.3" stroke-linejoin="round" x1="144.10596" y1="-90.10547" x2="210.10596" y2="-156.10547"/>
			
				<line fill="none" stroke="#231F20" stroke-width="0.3" stroke-linejoin="round" x1="144.10596" y1="-84.10547" x2="216.10596" y2="-156.10547"/>
			
				<line fill="none" stroke="#231F20" stroke-width="0.3" stroke-linejoin="round" x1="144.10596" y1="-78.10547" x2="222.10596" y2="-156.10547"/>
			
				<line fill="none" stroke="#231F20" stroke-width="0.3" stroke-linejoin="round" x1="144.10596" y1="-72.10645" x2="228.10596" y2="-156.10547"/>
			
				<line fill="none" stroke="#231F20" stroke-width="0.3" stroke-linejoin="round" x1="150.10596" y1="-72.10645" x2="228.10596" y2="-150.10547"/>
		</g>
		<g>
			
				<line fill="none" stroke="#231F20" stroke-width="0.3" stroke-linejoin="round" x1="72.10596" y1="-138.10547" x2="90.10596" y2="-156.10547"/>
			
				<line fill="none" stroke="#231F20" stroke-width="0.3" stroke-linejoin="round" x1="72.10596" y1="-132.10547" x2="96.10596" y2="-156.10547"/>
			
				<line fill="none" stroke="#231F20" stroke-width="0.3" stroke-linejoin="round" x1="72.10596" y1="-126.10547" x2="102.10596" y2="-156.10547"/>
			
				<line fill="none" stroke="#231F20" stroke-width="0.3" stroke-linejoin="round" x1="72.10596" y1="-120.10547" x2="108.10596" y2="-156.10547"/>
			
				<line fill="none" stroke="#231F20" stroke-width="0.3" stroke-linejoin="round" x1="72.10596" y1="-114.10547" x2="114.10596" y2="-156.10547"/>
			
				<line fill="none" stroke="#231F20" stroke-width="0.3" stroke-linejoin="round" x1="72.10596" y1="-108.10547" x2="120.10596" y2="-156.10547"/>
			
				<line fill="none" stroke="#231F20" stroke-width="0.3" stroke-linejoin="round" x1="72.10596" y1="-102.10547" x2="126.10596" y2="-156.10547"/>
			
				<line fill="none" stroke="#231F20" stroke-width="0.3" stroke-linejoin="round" x1="72.10596" y1="-96.10547" x2="132.10596" y2="-156.10547"/>
			
				<line fill="none" stroke="#231F20" stroke-width="0.3" stroke-linejoin="round" x1="72.10596" y1="-90.10547" x2="138.10596" y2="-156.10547"/>
			
				<line fill="none" stroke="#231F20" stroke-width="0.3" stroke-linejoin="round" x1="72.10596" y1="-84.10547" x2="144.10596" y2="-156.10547"/>
			
				<line fill="none" stroke="#231F20" stroke-width="0.3" stroke-linejoin="round" x1="72.10596" y1="-78.10547" x2="150.10596" y2="-156.10547"/>
			
				<line fill="none" stroke="#231F20" stroke-width="0.3" stroke-linejoin="round" x1="72.10596" y1="-72.10645" x2="156.10596" y2="-156.10547"/>
			
				<line fill="none" stroke="#231F20" stroke-width="0.3" stroke-linejoin="round" x1="78.10596" y1="-72.10645" x2="156.10596" y2="-150.10547"/>
			
				<line fill="none" stroke="#231F20" stroke-width="0.3" stroke-linejoin="round" x1="84.10596" y1="-72.10645" x2="156.10596" y2="-144.10547"/>
			
				<line fill="none" stroke="#231F20" stroke-width="0.3" stroke-linejoin="round" x1="90.10596" y1="-72.10645" x2="156.10596" y2="-138.10547"/>
			
				<line fill="none" stroke="#231F20" stroke-width="0.3" stroke-linejoin="round" x1="96.10596" y1="-72.10645" x2="156.10596" y2="-132.10547"/>
			
				<line fill="none" stroke="#231F20" stroke-width="0.3" stroke-linejoin="round" x1="102.10596" y1="-72.10645" x2="156.10596" y2="-126.10547"/>
			
				<line fill="none" stroke="#231F20" stroke-width="0.3" stroke-linejoin="round" x1="108.10596" y1="-72.10645" x2="156.10596" y2="-120.10547"/>
			
				<line fill="none" stroke="#231F20" stroke-width="0.3" stroke-linejoin="round" x1="114.10596" y1="-72.10645" x2="156.10596" y2="-114.10547"/>
			
				<line fill="none" stroke="#231F20" stroke-width="0.3" stroke-linejoin="round" x1="120.10596" y1="-72.10645" x2="156.10596" y2="-108.10547"/>
			
				<line fill="none" stroke="#231F20" stroke-width="0.3" stroke-linejoin="round" x1="126.10596" y1="-72.10645" x2="156.10596" y2="-102.10547"/>
			
				<line fill="none" stroke="#231F20" stroke-width="0.3" stroke-linejoin="round" x1="132.10596" y1="-72.10645" x2="156.10596" y2="-96.10547"/>
			
				<line fill="none" stroke="#231F20" stroke-width="0.3" stroke-linejoin="round" x1="138.10596" y1="-72.10645" x2="156.10596" y2="-90.10547"/>
			
				<line fill="none" stroke="#231F20" stroke-width="0.3" stroke-linejoin="round" x1="144.10596" y1="-72.10645" x2="156.10596" y2="-84.10547"/>
		</g>
		<g>
			
				<line fill="none" stroke="#231F20" stroke-width="0.3" stroke-linejoin="round" x1="0.10596" y1="-72.10645" x2="84.10596" y2="-156.10547"/>
			
				<line fill="none" stroke="#231F20" stroke-width="0.3" stroke-linejoin="round" x1="6.10596" y1="-72.10645" x2="84.10596" y2="-150.10547"/>
			
				<line fill="none" stroke="#231F20" stroke-width="0.3" stroke-linejoin="round" x1="12.10596" y1="-72.10645" x2="84.10596" y2="-144.10547"/>
			
				<line fill="none" stroke="#231F20" stroke-width="0.3" stroke-linejoin="round" x1="18.10596" y1="-72.10645" x2="84.10596" y2="-138.10547"/>
			
				<line fill="none" stroke="#231F20" stroke-width="0.3" stroke-linejoin="round" x1="24.10596" y1="-72.10645" x2="84.10596" y2="-132.10547"/>
			
				<line fill="none" stroke="#231F20" stroke-width="0.3" stroke-linejoin="round" x1="30.10596" y1="-72.10645" x2="84.10596" y2="-126.10547"/>
			
				<line fill="none" stroke="#231F20" stroke-width="0.3" stroke-linejoin="round" x1="36.10596" y1="-72.10645" x2="84.10596" y2="-120.10547"/>
			
				<line fill="none" stroke="#231F20" stroke-width="0.3" stroke-linejoin="round" x1="42.10596" y1="-72.10645" x2="84.10596" y2="-114.10547"/>
			
				<line fill="none" stroke="#231F20" stroke-width="0.3" stroke-linejoin="round" x1="48.10596" y1="-72.10645" x2="84.10596" y2="-108.10547"/>
			
				<line fill="none" stroke="#231F20" stroke-width="0.3" stroke-linejoin="round" x1="54.10596" y1="-72.10645" x2="84.10596" y2="-102.10547"/>
			
				<line fill="none" stroke="#231F20" stroke-width="0.3" stroke-linejoin="round" x1="60.10596" y1="-72.10645" x2="84.10596" y2="-96.10547"/>
			
				<line fill="none" stroke="#231F20" stroke-width="0.3" stroke-linejoin="round" x1="66.10596" y1="-72.10645" x2="84.10596" y2="-90.10547"/>
			
				<line fill="none" stroke="#231F20" stroke-width="0.3" stroke-linejoin="round" x1="72.10596" y1="-72.10645" x2="84.10596" y2="-84.10547"/>
		</g>
		<g>
			
				<line fill="none" stroke="#231F20" stroke-width="0.3" stroke-linejoin="round" x1="144.10596" y1="-144.10645" x2="228.10596" y2="-228.10547"/>
			
				<line fill="none" stroke="#231F20" stroke-width="0.3" stroke-linejoin="round" x1="150.10596" y1="-144.10645" x2="228.10596" y2="-222.10547"/>
		</g>
		<g>
			
				<line fill="none" stroke="#231F20" stroke-width="0.3" stroke-linejoin="round" x1="72.10596" y1="-144.10645" x2="156.10596" y2="-228.10547"/>
			
				<line fill="none" stroke="#231F20" stroke-width="0.3" stroke-linejoin="round" x1="78.10596" y1="-144.10645" x2="156.10596" y2="-222.10547"/>
			
				<line fill="none" stroke="#231F20" stroke-width="0.3" stroke-linejoin="round" x1="84.10596" y1="-144.10645" x2="156.10596" y2="-216.10547"/>
			
				<line fill="none" stroke="#231F20" stroke-width="0.3" stroke-linejoin="round" x1="90.10596" y1="-144.10645" x2="156.10596" y2="-210.10547"/>
			
				<line fill="none" stroke="#231F20" stroke-width="0.3" stroke-linejoin="round" x1="96.10596" y1="-144.10645" x2="156.10596" y2="-204.10547"/>
			
				<line fill="none" stroke="#231F20" stroke-width="0.3" stroke-linejoin="round" x1="102.10596" y1="-144.10645" x2="156.10596" y2="-198.10547"/>
			
				<line fill="none" stroke="#231F20" stroke-width="0.3" stroke-linejoin="round" x1="108.10596" y1="-144.10645" x2="156.10596" y2="-192.10547"/>
			
				<line fill="none" stroke="#231F20" stroke-width="0.3" stroke-linejoin="round" x1="114.10596" y1="-144.10645" x2="156.10596" y2="-186.10547"/>
			
				<line fill="none" stroke="#231F20" stroke-width="0.3" stroke-linejoin="round" x1="120.10596" y1="-144.10645" x2="156.10596" y2="-180.10547"/>
			
				<line fill="none" stroke="#231F20" stroke-width="0.3" stroke-linejoin="round" x1="126.10596" y1="-144.10645" x2="156.10596" y2="-174.10547"/>
			
				<line fill="none" stroke="#231F20" stroke-width="0.3" stroke-linejoin="round" x1="132.10596" y1="-144.10645" x2="156.10596" y2="-168.10547"/>
			
				<line fill="none" stroke="#231F20" stroke-width="0.3" stroke-linejoin="round" x1="138.10596" y1="-144.10645" x2="156.10596" y2="-162.10547"/>
			
				<line fill="none" stroke="#231F20" stroke-width="0.3" stroke-linejoin="round" x1="144.10596" y1="-144.10645" x2="156.10596" y2="-156.10547"/>
		</g>
		<g>
			
				<line fill="none" stroke="#231F20" stroke-width="0.3" stroke-linejoin="round" x1="0.10596" y1="-144.10645" x2="84.10596" y2="-228.10547"/>
			
				<line fill="none" stroke="#231F20" stroke-width="0.3" stroke-linejoin="round" x1="6.10596" y1="-144.10645" x2="84.10596" y2="-222.10547"/>
			
				<line fill="none" stroke="#231F20" stroke-width="0.3" stroke-linejoin="round" x1="12.10596" y1="-144.10645" x2="84.10596" y2="-216.10547"/>
			
				<line fill="none" stroke="#231F20" stroke-width="0.3" stroke-linejoin="round" x1="18.10596" y1="-144.10645" x2="84.10596" y2="-210.10547"/>
			
				<line fill="none" stroke="#231F20" stroke-width="0.3" stroke-linejoin="round" x1="24.10596" y1="-144.10645" x2="84.10596" y2="-204.10547"/>
			
				<line fill="none" stroke="#231F20" stroke-width="0.3" stroke-linejoin="round" x1="30.10596" y1="-144.10645" x2="84.10596" y2="-198.10547"/>
			
				<line fill="none" stroke="#231F20" stroke-width="0.3" stroke-linejoin="round" x1="36.10596" y1="-144.10645" x2="84.10596" y2="-192.10547"/>
			
				<line fill="none" stroke="#231F20" stroke-width="0.3" stroke-linejoin="round" x1="42.10596" y1="-144.10645" x2="84.10596" y2="-186.10547"/>
			
				<line fill="none" stroke="#231F20" stroke-width="0.3" stroke-linejoin="round" x1="48.10596" y1="-144.10645" x2="84.10596" y2="-180.10547"/>
			
				<line fill="none" stroke="#231F20" stroke-width="0.3" stroke-linejoin="round" x1="54.10596" y1="-144.10645" x2="84.10596" y2="-174.10547"/>
			
				<line fill="none" stroke="#231F20" stroke-width="0.3" stroke-linejoin="round" x1="60.10596" y1="-144.10645" x2="84.10596" y2="-168.10547"/>
			
				<line fill="none" stroke="#231F20" stroke-width="0.3" stroke-linejoin="round" x1="66.10596" y1="-144.10645" x2="84.10596" y2="-162.10547"/>
			
				<line fill="none" stroke="#231F20" stroke-width="0.3" stroke-linejoin="round" x1="72.10596" y1="-144.10645" x2="84.10596" y2="-156.10547"/>
		</g>
	</g>
</pattern>
<g id="Layer_2">
</g>
<g id="Layer_1">
	<pattern  id="SVGID_1_" xlink:href="#Diagonal_Lines" patternTransform="matrix(1 0 0 1 0 25)">
	</pattern>
	<polygon fill="url(#SVGID_1_)" points="95,0 95,30 125,30 	"/>
	<g>
		<polygon fill="#00E585" points="12,138 12,2 93,2 93,32 123,31.99951 123,138 		"/>
		<path d="M91,4v26v4h4l26-0.00049V136H14V4H91 M95,0H10v140h115V30H95V0L95,0z"/>
	</g>
	<pattern  id="SVGID_2_" xlink:href="#Diagonal_Lines" patternTransform="matrix(1 0 0 1 25 -25)">
	</pattern>
	<polygon fill="url(#SVGID_2_)" points="115,140 10,140 10,10 0,10 0,150 115,150 	"/>
	<g>
		<path d="M95,5.82812L119.34277,30H95V6 M95,0h-4v34h34v-4L95,0L95,0z"/>
	</g>
	
		<image overflow="visible" width="268" height="221" xlink:href="../../../Desktop/Screen Shot 2015-07-20 at 12.43.40 PM.png"  transform="matrix(1 0 0 1 -480 -146)">
	</image>
</g>
<g id="Type">
	<rect x="-15.00049" y="-309.66699" fill="none" width="140.00049" height="190"/>
	<text transform="matrix(1 0 0 1 -3.00049 -267.66699)"><tspan x="0" y="0" font-family="'ArchivoNarrow-Regular'" font-size="14" letter-spacing="2">INFO</tspan><tspan x="0" y="38" font-family="'ArchivoBlack-Regular'" font-size="40">343</tspan><tspan x="0" y="54" font-family="'ArchivoNarrow-Regular'" font-size="14">Client-side Web </tspan><tspan x="0" y="70" font-family="'ArchivoNarrow-Regular'" font-size="14">Development</tspan></text>
	<rect x="150" y="-309.66699" fill="none" width="140" height="190"/>
	<text transform="matrix(1 0 0 1 162 -267.66699)"><tspan x="0" y="0" font-family="'ArchivoNarrow-Regular'" font-size="14" letter-spacing="2">INFO</tspan><tspan x="0" y="38" font-family="'ArchivoBlack-Regular'" font-size="40">343</tspan><tspan x="0" y="54" font-family="'Karla-Regular'" font-size="14">Client-side Web </tspan><tspan x="0" y="70" font-family="'Karla-Regular'" font-size="14">Development</tspan></text>
	<g>
		<rect x="234.66699" y="-133.33301" fill="none" width="594.33301" height="570.33301"/>
		<text transform="matrix(1 0 0 1 234.66699 -123.79883)"><tspan x="0" y="0" font-family="'Karla-Regular'" font-size="14">&quot;info343&quot; : {</tspan><tspan x="0" y="37" font-family="'Karla-Regular'" font-size="14">          &quot;dept&quot; : &quot;INFO&quot;,</tspan><tspan x="0" y="74" font-family="'Karla-Regular'" font-size="14">          &quot;num&quot; : &quot;343&quot;,</tspan><tspan x="0" y="111" font-family="'Karla-Regular'" font-size="14">          &quot;fullName&quot; : &quot;info343&quot;,</tspan><tspan x="0" y="148" font-family="'Karla-Regular'" font-size="14">          &quot;title&quot; : &quot;Client-Side Web Development&quot;,</tspan><tspan x="0" y="185" font-family="'Karla-Regular'" font-size="14">          &quot;credits&quot; : 5,</tspan><tspan x="0" y="222" font-family="'Karla-Regular'" font-size="14">          &quot;required&quot; : true,</tspan><tspan x="0" y="259" font-family="'Karla-Regular'" font-size="14">          &quot;prereqs&quot; : [&quot;cse142&quot;],</tspan><tspan x="0" y="296" font-family="'Karla-Regular'" font-size="14">          &quot;completed&quot; : false,</tspan><tspan x="0" y="333" font-family="'Karla-Regular'" font-size="14">          &quot;preferredYear&quot; : 3,</tspan><tspan x="0" y="370" font-family="'Karla-Regular'" font-size="14">          &quot;classType&quot; : &quot;NW&quot;</tspan><tspan x="0" y="407" font-family="'Karla-Regular'" font-size="14">        },</tspan></text>
	</g>
</g>
</svg>
