<?xml version="1.0" encoding="utf-8"?>
<!-- Generator: Adobe Illustrator 16.0.0, SVG Export Plug-In . SVG Version: 6.00 Build 0)  -->
<!DOCTYPE svg PUBLIC "-//W3C//DTD SVG 1.1//EN" "http://www.w3.org/Graphics/SVG/1.1/DTD/svg11.dtd">
<svg version="1.1" xmlns="http://www.w3.org/2000/svg" xmlns:xlink="http://www.w3.org/1999/xlink" x="0px" y="0px" width="200px"
	 height="250px" viewBox="0 0 200 250" enable-background="new 0 0 200 250" xml:space="preserve">
<pattern  y="25" width="57.6" height="57.601" patternUnits="userSpaceOnUse" id="Capsules" viewBox="4.185 -61.501 57.6 57.601" overflow="visible">
	<g>
		<polygon fill="none" points="4.185,-61.501 61.784,-61.501 61.784,-3.9 4.185,-3.9 		"/>
		<g>
			
				<line fill="none" stroke="#231F20" stroke-width="1.6" stroke-linecap="round" x1="62.291" y1="-47.024" x2="66.441" y2="-48.047"/>
		</g>
		<g>
			
				<line fill="none" stroke="#231F20" stroke-width="1.6" stroke-linecap="round" x1="29.983" y1="-29.7" x2="27.771" y2="-26.043"/>
			
				<line fill="none" stroke="#231F20" stroke-width="1.6" stroke-linecap="round" x1="27.419" y1="-36.593" x2="29.175" y2="-33.371"/>
			
				<line fill="none" stroke="#231F20" stroke-width="1.6" stroke-linecap="round" x1="25.931" y1="-34.149" x2="26.153" y2="-29.333"/>
			
				<line fill="none" stroke="#231F20" stroke-width="1.6" stroke-linecap="round" x1="34.96" y1="-17.386" x2="35.765" y2="-13.187"/>
			
				<line fill="none" stroke="#231F20" stroke-width="1.6" stroke-linecap="round" x1="21.685" y1="-22.808" x2="20.894" y2="-18.606"/>
			
				<line fill="none" stroke="#231F20" stroke-width="1.6" stroke-linecap="round" x1="14.05" y1="-22.345" x2="17.354" y2="-19.633"/>
			
				<line fill="none" stroke="#231F20" stroke-width="1.6" stroke-linecap="round" x1="21.681" y1="-28.062" x2="24.983" y2="-25.351"/>
			
				<line fill="none" stroke="#231F20" stroke-width="1.6" stroke-linecap="round" x1="25.858" y1="-18.112" x2="24.386" y2="-22.126"/>
			
				<line fill="none" stroke="#231F20" stroke-width="1.6" stroke-linecap="round" x1="13.634" y1="-19.493" x2="9.431" y2="-15.899"/>
			
				<line fill="none" stroke="#231F20" stroke-width="1.6" stroke-linecap="round" x1="19.306" y1="-30.202" x2="23.415" y2="-31.382"/>
			
				<line fill="none" stroke="#231F20" stroke-width="1.6" stroke-linecap="round" x1="27.976" y1="-10.599" x2="31.415" y2="-13.141"/>
			
				<line fill="none" stroke="#231F20" stroke-width="1.6" stroke-linecap="round" x1="19.292" y1="-8.732" x2="21.501" y2="-12.392"/>
			
				<line fill="none" stroke="#231F20" stroke-width="1.6" stroke-linecap="round" x1="37.933" y1="-27.354" x2="39.614" y2="-23.423"/>
			
				<line fill="none" stroke="#231F20" stroke-width="1.6" stroke-linecap="round" x1="45.931" y1="-36.649" x2="45.384" y2="-30.9"/>
			
				<line fill="none" stroke="#231F20" stroke-width="1.6" stroke-linecap="round" x1="34.755" y1="-22.604" x2="32.628" y2="-18.895"/>
			
				<line fill="none" stroke="#231F20" stroke-width="1.6" stroke-linecap="round" x1="43.853" y1="-22.77" x2="40.548" y2="-20.058"/>
			
				<line fill="none" stroke="#231F20" stroke-width="1.6" stroke-linecap="round" x1="42.774" y1="-9.451" x2="46.095" y2="-6.759"/>
			
				<line fill="none" stroke="#231F20" stroke-width="1.6" stroke-linecap="round" x1="41.095" y1="-29.031" x2="44.384" y2="-26.301"/>
			
				<line fill="none" stroke="#231F20" stroke-width="1.6" stroke-linecap="round" x1="34.265" y1="-26.914" x2="35.759" y2="-30.92"/>
			
				<line fill="none" stroke="#231F20" stroke-width="1.6" stroke-linecap="round" x1="38.466" y1="-31.034" x2="42.103" y2="-33.281"/>
			
				<line fill="none" stroke="#231F20" stroke-width="1.6" stroke-linecap="round" x1="14.202" y1="-13.576" x2="16.683" y2="-17.058"/>
			
				<line fill="none" stroke="#231F20" stroke-width="1.6" stroke-linecap="round" x1="45.185" y1="-41.116" x2="42.794" y2="-37.573"/>
			
				<line fill="none" stroke="#231F20" stroke-width="1.6" stroke-linecap="round" x1="18.181" y1="-23.649" x2="16.462" y2="-28.865"/>
			
				<line fill="none" stroke="#231F20" stroke-width="1.6" stroke-linecap="round" x1="17.347" y1="-44.354" x2="20.112" y2="-47.614"/>
			
				<line fill="none" stroke="#231F20" stroke-width="1.6" stroke-linecap="round" x1="38.874" y1="-39.638" x2="38.431" y2="-34.149"/>
			
				<line fill="none" stroke="#231F20" stroke-width="1.6" stroke-linecap="round" x1="25.681" y1="-38.149" x2="27.599" y2="-42.76"/>
			
				<line fill="none" stroke="#231F20" stroke-width="1.6" stroke-linecap="round" x1="29.903" y1="-19.444" x2="28.483" y2="-15.413"/>
			
				<line fill="none" stroke="#231F20" stroke-width="1.6" stroke-linecap="round" x1="35.876" y1="-19.861" x2="39.181" y2="-17.149"/>
			
				<line fill="none" stroke="#231F20" stroke-width="1.6" stroke-linecap="round" x1="20.526" y1="-39.568" x2="23.181" y2="-34.899"/>
			
				<line fill="none" stroke="#231F20" stroke-width="1.6" stroke-linecap="round" x1="29.315" y1="-6.384" x2="32.952" y2="-8.632"/>
			
				<line fill="none" stroke="#231F20" stroke-width="1.6" stroke-linecap="round" x1="19.163" y1="-32.583" x2="15.034" y2="-33.688"/>
			
				<line fill="none" stroke="#231F20" stroke-width="1.6" stroke-linecap="round" x1="18.558" y1="-41.18" x2="16.931" y2="-38.149"/>
			
				<line fill="none" stroke="#231F20" stroke-width="1.6" stroke-linecap="round" x1="49.931" y1="-55.649" x2="50.185" y2="-50.501"/>
			
				<line fill="none" stroke="#231F20" stroke-width="1.6" stroke-linecap="round" x1="34.649" y1="-58.146" x2="37.952" y2="-55.433"/>
			
				<line fill="none" stroke="#231F20" stroke-width="1.6" stroke-linecap="round" x1="29.431" y1="-56.149" x2="25.144" y2="-53.163"/>
			
				<line fill="none" stroke="#231F20" stroke-width="1.6" stroke-linecap="round" x1="17.94" y1="-59.226" x2="21.681" y2="-56.649"/>
			
				<line fill="none" stroke="#231F20" stroke-width="1.6" stroke-linecap="round" x1="32.034" y1="-44.996" x2="34.185" y2="-41.301"/>
			
				<line fill="none" stroke="#231F20" stroke-width="1.6" stroke-linecap="round" x1="34.181" y1="-52.399" x2="33.636" y2="-49.019"/>
			
				<line fill="none" stroke="#231F20" stroke-width="1.6" stroke-linecap="round" x1="37.497" y1="-52.854" x2="41.415" y2="-51.141"/>
			
				<line fill="none" stroke="#231F20" stroke-width="1.6" stroke-linecap="round" x1="29.69" y1="-51.732" x2="31.899" y2="-55.393"/>
			
				<line fill="none" stroke="#231F20" stroke-width="1.6" stroke-linecap="round" x1="52.431" y1="-40.399" x2="48.595" y2="-37.013"/>
			
				<line fill="none" stroke="#231F20" stroke-width="1.6" stroke-linecap="round" x1="21.931" y1="-41.899" x2="23.839" y2="-46.8"/>
			
				<line fill="none" stroke="#231F20" stroke-width="1.6" stroke-linecap="round" x1="20.853" y1="-52.922" x2="23.89" y2="-49.913"/>
			
				<line fill="none" stroke="#231F20" stroke-width="1.6" stroke-linecap="round" x1="46.403" y1="-56.796" x2="44.181" y2="-52.899"/>
			
				<line fill="none" stroke="#231F20" stroke-width="1.6" stroke-linecap="round" x1="48.685" y1="-46.406" x2="48.772" y2="-42.132"/>
			<line fill="none" stroke="#231F20" stroke-width="1.6" stroke-linecap="round" x1="44.8" y1="-49.111" x2="49.069" y2="-48.9"/>
			
				<line fill="none" stroke="#231F20" stroke-width="1.6" stroke-linecap="round" x1="30.04" y1="-48.546" x2="26.743" y2="-45.822"/>
			
				<line fill="none" stroke="#231F20" stroke-width="1.6" stroke-linecap="round" x1="49.431" y1="-30.818" x2="47.749" y2="-26.888"/>
			
				<line fill="none" stroke="#231F20" stroke-width="1.6" stroke-linecap="round" x1="54.269" y1="-22.915" x2="54.983" y2="-18.7"/>
			<line fill="none" stroke="#231F20" stroke-width="1.6" stroke-linecap="round" x1="54.884" y1="-27.9" x2="56.46" y2="-23.926"/>
			
				<line fill="none" stroke="#231F20" stroke-width="1.6" stroke-linecap="round" x1="54.927" y1="-14.819" x2="51.638" y2="-12.088"/>
			
				<line fill="none" stroke="#231F20" stroke-width="1.6" stroke-linecap="round" x1="56.786" y1="-11.258" x2="58.995" y2="-14.918"/>
			
				<line fill="none" stroke="#231F20" stroke-width="1.6" stroke-linecap="round" x1="47.669" y1="-16.253" x2="48.681" y2="-11.149"/>
			
				<line fill="none" stroke="#231F20" stroke-width="1.6" stroke-linecap="round" x1="58.796" y1="-38.16" x2="54.532" y2="-38.484"/>
			
				<line fill="none" stroke="#231F20" stroke-width="1.6" stroke-linecap="round" x1="60.548" y1="-21.291" x2="57.261" y2="-18.558"/>
			
				<line fill="none" stroke="#231F20" stroke-width="1.6" stroke-linecap="round" x1="51.835" y1="-25.069" x2="50.034" y2="-21.192"/>
			
				<line fill="none" stroke="#231F20" stroke-width="1.6" stroke-linecap="round" x1="57.618" y1="-35.304" x2="60.771" y2="-32.417"/>
			
				<line fill="none" stroke="#231F20" stroke-width="1.6" stroke-linecap="round" x1="11.931" y1="-56.149" x2="9.218" y2="-53.15"/>
			
				<line fill="none" stroke="#231F20" stroke-width="1.6" stroke-linecap="round" x1="18.192" y1="-51.291" x2="14.89" y2="-48.577"/>
			
				<line fill="none" stroke="#231F20" stroke-width="1.6" stroke-linecap="round" x1="15.364" y1="-58.956" x2="16.599" y2="-54.861"/>
			
				<line fill="none" stroke="#231F20" stroke-width="1.6" stroke-linecap="round" x1="51.933" y1="-30.754" x2="56.181" y2="-30.275"/>
			
				<line fill="none" stroke="#231F20" stroke-width="1.6" stroke-linecap="round" x1="10.937" y1="-13.692" x2="9.255" y2="-9.763"/>
			<line fill="none" stroke="#231F20" stroke-width="1.6" stroke-linecap="round" x1="12.474" y1="-8.533" x2="9.185" y2="-5.803"/>
			
				<line fill="none" stroke="#231F20" stroke-width="1.6" stroke-linecap="round" x1="10.315" y1="-31.597" x2="13.604" y2="-28.864"/>
			
				<line fill="none" stroke="#231F20" stroke-width="1.6" stroke-linecap="round" x1="53.114" y1="-54.385" x2="56.753" y2="-56.632"/>
			
				<line fill="none" stroke="#231F20" stroke-width="1.6" stroke-linecap="round" x1="54.403" y1="-51.883" x2="52.983" y2="-47.851"/>
			<line fill="none" stroke="#231F20" stroke-width="1.6" stroke-linecap="round" x1="4.69" y1="-47.024" x2="8.841" y2="-48.047"/>
			
				<line fill="none" stroke="#231F20" stroke-width="1.6" stroke-linecap="round" x1="6.692" y1="-32.594" x2="8.911" y2="-36.249"/>
			<line fill="none" stroke="#231F20" stroke-width="1.6" stroke-linecap="round" x1="9.747" y1="-43.17" x2="6.46" y2="-40.438"/>
			
				<line fill="none" stroke="#231F20" stroke-width="1.6" stroke-linecap="round" x1="11.526" y1="-46.568" x2="13.681" y2="-42.899"/>
			
				<line fill="none" stroke="#231F20" stroke-width="1.6" stroke-linecap="round" x1="9.931" y1="-40.399" x2="12.677" y2="-35.874"/>
			
				<line fill="none" stroke="#231F20" stroke-width="1.6" stroke-linecap="round" x1="8.192" y1="-29.114" x2="7.401" y2="-24.914"/>
			
				<line fill="none" stroke="#231F20" stroke-width="1.6" stroke-linecap="round" x1="13.681" y1="-25.899" x2="9.675" y2="-22.822"/>
			
				<line fill="none" stroke="#231F20" stroke-width="1.6" stroke-linecap="round" x1="15.632" y1="-11.596" x2="15.954" y2="-7.333"/>
			
				<line fill="none" stroke="#231F20" stroke-width="1.6" stroke-linecap="round" x1="38.931" y1="-48.899" x2="34.993" y2="-45.612"/>
			
				<line fill="none" stroke="#231F20" stroke-width="1.6" stroke-linecap="round" x1="41.563" y1="-48.228" x2="43.714" y2="-44.532"/>
			
				<line fill="none" stroke="#231F20" stroke-width="1.6" stroke-linecap="round" x1="37.495" y1="-43.944" x2="41.313" y2="-42.022"/>
			
				<line fill="none" stroke="#231F20" stroke-width="1.6" stroke-linecap="round" x1="32.647" y1="-24.654" x2="29.343" y2="-21.942"/>
			
				<line fill="none" stroke="#231F20" stroke-width="1.6" stroke-linecap="round" x1="24.382" y1="-16.8" x2="20.411" y2="-15.221"/>
			
				<line fill="none" stroke="#231F20" stroke-width="1.6" stroke-linecap="round" x1="24.181" y1="-11.399" x2="26.181" y2="-7.149"/>
			
				<line fill="none" stroke="#231F20" stroke-width="1.6" stroke-linecap="round" x1="40.431" y1="-14.149" x2="44.446" y2="-12.684"/>
			
				<line fill="none" stroke="#231F20" stroke-width="1.6" stroke-linecap="round" x1="41.181" y1="-58.399" x2="40.772" y2="-54.025"/>
			
				<line fill="none" stroke="#231F20" stroke-width="1.6" stroke-linecap="round" x1="45.034" y1="-19.869" x2="43.989" y2="-15.725"/>
			
				<line fill="none" stroke="#231F20" stroke-width="1.6" stroke-linecap="round" x1="40.353" y1="-11.799" x2="36.259" y2="-10.567"/>
			
				<line fill="none" stroke="#231F20" stroke-width="1.6" stroke-linecap="round" x1="36.681" y1="-37.899" x2="32.847" y2="-33.772"/>
			
				<line fill="none" stroke="#231F20" stroke-width="1.6" stroke-linecap="round" x1="54.132" y1="-10.152" x2="55.813" y2="-6.223"/>
			
				<line fill="none" stroke="#231F20" stroke-width="1.6" stroke-linecap="round" x1="60.39" y1="-24.975" x2="63.694" y2="-22.263"/>
			
				<line fill="none" stroke="#231F20" stroke-width="1.6" stroke-linecap="round" x1="61.144" y1="-15.271" x2="64.448" y2="-12.558"/>
			
				<line fill="none" stroke="#231F20" stroke-width="1.6" stroke-linecap="round" x1="58.399" y1="-29.328" x2="62.509" y2="-30.507"/>
			
				<line fill="none" stroke="#231F20" stroke-width="1.6" stroke-linecap="round" x1="60.62" y1="-40.094" x2="62.771" y2="-36.398"/>
			
				<line fill="none" stroke="#231F20" stroke-width="1.6" stroke-linecap="round" x1="62.29" y1="-47.024" x2="66.44" y2="-48.047"/>
			<line fill="none" stroke="#231F20" stroke-width="1.6" stroke-linecap="round" x1="63.185" y1="-9.9" x2="59.896" y2="-7.169"/>
			
				<line fill="none" stroke="#231F20" stroke-width="1.6" stroke-linecap="round" x1="55.333" y1="-46.953" x2="57.015" y2="-43.022"/>
			
				<line fill="none" stroke="#231F20" stroke-width="1.6" stroke-linecap="round" x1="64.511" y1="-18.597" x2="60.333" y2="-17.685"/>
			
				<line fill="none" stroke="#231F20" stroke-width="1.6" stroke-linecap="round" x1="55.11" y1="-35.396" x2="49.931" y2="-34.149"/>
			
				<line fill="none" stroke="#231F20" stroke-width="1.6" stroke-linecap="round" x1="10.257" y1="-50.286" x2="13.784" y2="-52.7"/>
			
				<line fill="none" stroke="#231F20" stroke-width="1.6" stroke-linecap="round" x1="49.226" y1="-19.066" x2="52.228" y2="-16.023"/>
			
				<line fill="none" stroke="#231F20" stroke-width="1.6" stroke-linecap="round" x1="57.276" y1="-52.845" x2="59.272" y2="-49.063"/>
			
				<line fill="none" stroke="#231F20" stroke-width="1.6" stroke-linecap="round" x1="63.247" y1="-43.575" x2="58.983" y2="-43.9"/>
			
				<line fill="none" stroke="#231F20" stroke-width="1.6" stroke-linecap="round" x1="30.546" y1="-41.692" x2="31.681" y2="-36.649"/>
			
				<line fill="none" stroke="#231F20" stroke-width="1.6" stroke-linecap="round" x1="46.345" y1="-25.093" x2="47.185" y2="-20.9"/>
			
				<line fill="none" stroke="#231F20" stroke-width="1.6" stroke-linecap="round" x1="51.399" y1="-43.542" x2="55.142" y2="-41.471"/>
			
				<line fill="none" stroke="#231F20" stroke-width="1.6" stroke-linecap="round" x1="39.181" y1="-7.149" x2="36.153" y2="-8.121"/>
			
				<line fill="none" stroke="#231F20" stroke-width="1.6" stroke-linecap="round" x1="24.831" y1="-59.651" x2="24.384" y2="-55.4"/>
			
				<line fill="none" stroke="#231F20" stroke-width="1.6" stroke-linecap="round" x1="6.181" y1="-55.899" x2="7.181" y2="-50.649"/>
			
				<line fill="none" stroke="#231F20" stroke-width="1.6" stroke-linecap="round" x1="60.431" y1="-53.399" x2="61.925" y2="-57.405"/>
			
				<line fill="none" stroke="#231F20" stroke-width="1.6" stroke-linecap="round" x1="51.931" y1="-8.774" x2="50.181" y2="-4.899"/>
			
				<line fill="none" stroke="#231F20" stroke-width="1.6" stroke-linecap="round" x1="48.513" y1="-1.734" x2="44.841" y2="-3.923"/>
			<line fill="none" stroke="#231F20" stroke-width="1.6" stroke-linecap="round" x1="33.681" y1="-6.3" x2="31.892" y2="-0.809"/>
			<line fill="none" stroke="#231F20" stroke-width="1.6" stroke-linecap="round" x1="25.681" y1="-5.05" x2="28.681" y2="-0.8"/>
			
				<line fill="none" stroke="#231F20" stroke-width="1.6" stroke-linecap="round" x1="55.118" y1="-4.135" x2="51.813" y2="-1.425"/>
			
				<line fill="none" stroke="#231F20" stroke-width="1.6" stroke-linecap="round" x1="12.714" y1="-5.673" x2="11.784" y2="-1.502"/>
			<line fill="none" stroke="#231F20" stroke-width="1.6" stroke-linecap="round" x1="19.181" y1="-5.899" x2="15.931" y2="-3.55"/>
			<line fill="none" stroke="#231F20" stroke-width="1.6" stroke-linecap="round" x1="5.78" y1="-6.099" x2="6.585" y2="-1.901"/>
			<line fill="none" stroke="#231F20" stroke-width="1.6" stroke-linecap="round" x1="58.185" y1="-1.102" x2="60.394" y2="-4.76"/>
			<line fill="none" stroke="#231F20" stroke-width="1.6" stroke-linecap="round" x1="38.181" y1="-0.8" x2="38.153" y2="-4.073"/>
			
				<line fill="none" stroke="#231F20" stroke-width="1.6" stroke-linecap="round" x1="21.091" y1="-7.364" x2="21.806" y2="-3.149"/>
			
				<line fill="none" stroke="#231F20" stroke-width="1.6" stroke-linecap="round" x1="41.333" y1="-5.703" x2="43.181" y2="-2.399"/>
		</g>
		<g>
			<line fill="none" stroke="#231F20" stroke-width="1.6" stroke-linecap="round" x1="2.79" y1="-24.975" x2="6.095" y2="-22.263"/>
			
				<line fill="none" stroke="#231F20" stroke-width="1.6" stroke-linecap="round" x1="3.544" y1="-15.271" x2="6.849" y2="-12.558"/>
			<line fill="none" stroke="#231F20" stroke-width="1.6" stroke-linecap="round" x1="0.8" y1="-29.328" x2="4.909" y2="-30.507"/>
			
				<line fill="none" stroke="#231F20" stroke-width="1.6" stroke-linecap="round" x1="3.021" y1="-40.094" x2="5.171" y2="-36.398"/>
			<line fill="none" stroke="#231F20" stroke-width="1.6" stroke-linecap="round" x1="4.69" y1="-47.024" x2="8.841" y2="-48.047"/>
			<line fill="none" stroke="#231F20" stroke-width="1.6" stroke-linecap="round" x1="5.585" y1="-9.9" x2="2.296" y2="-7.169"/>
			
				<line fill="none" stroke="#231F20" stroke-width="1.6" stroke-linecap="round" x1="6.911" y1="-18.597" x2="2.733" y2="-17.685"/>
			<line fill="none" stroke="#231F20" stroke-width="1.6" stroke-linecap="round" x1="5.647" y1="-43.575" x2="1.384" y2="-43.9"/>
			
				<line fill="none" stroke="#231F20" stroke-width="1.6" stroke-linecap="round" x1="2.831" y1="-53.399" x2="4.325" y2="-57.405"/>
		</g>
		<g>
			
				<line fill="none" stroke="#231F20" stroke-width="1.6" stroke-linecap="round" x1="48.513" y1="-59.335" x2="44.841" y2="-61.523"/>
			
				<line fill="none" stroke="#231F20" stroke-width="1.6" stroke-linecap="round" x1="33.681" y1="-63.9" x2="31.892" y2="-58.409"/>
			<line fill="none" stroke="#231F20" stroke-width="1.6" stroke-linecap="round" x1="25.681" y1="-62.65" x2="28.681" y2="-58.4"/>
			
				<line fill="none" stroke="#231F20" stroke-width="1.6" stroke-linecap="round" x1="55.118" y1="-61.735" x2="51.813" y2="-59.025"/>
			
				<line fill="none" stroke="#231F20" stroke-width="1.6" stroke-linecap="round" x1="12.714" y1="-63.273" x2="11.784" y2="-59.103"/>
			<line fill="none" stroke="#231F20" stroke-width="1.6" stroke-linecap="round" x1="19.181" y1="-63.5" x2="15.931" y2="-61.15"/>
			<line fill="none" stroke="#231F20" stroke-width="1.6" stroke-linecap="round" x1="5.78" y1="-63.699" x2="6.585" y2="-59.502"/>
			
				<line fill="none" stroke="#231F20" stroke-width="1.6" stroke-linecap="round" x1="58.185" y1="-58.702" x2="60.394" y2="-62.36"/>
			
				<line fill="none" stroke="#231F20" stroke-width="1.6" stroke-linecap="round" x1="38.181" y1="-58.4" x2="38.153" y2="-61.674"/>
			
				<line fill="none" stroke="#231F20" stroke-width="1.6" stroke-linecap="round" x1="21.091" y1="-64.965" x2="21.806" y2="-60.75"/>
			<line fill="none" stroke="#231F20" stroke-width="1.6" stroke-linecap="round" x1="41.333" y1="-63.304" x2="43.181" y2="-60"/>
		</g>
	</g>
</pattern>
<g id="Layer_1">
	<polygon fill="url(#Capsules)" points="145,25 145,55 175,55 	"/>
	<g>
		<polygon fill="#FFFFFF" points="36,214 36,27 143,27 143,57 173,57 173,214 		"/>
		<path d="M142,28v27v3h3l27,0v154H38V28H142 M145,25H35v190h140V55h-30V25L145,25z"/>
	</g>
	<polygon fill="url(#Capsules)" points="165,215 35,215 35,35 25,35 25,225 165,225 	"/>
	<g>
		<path d="M145,29.121L170.758,55H145V29 M145,25h-3v33h33v-3L145,25L145,25z"/>
	</g>
</g>
<g id="Type">
</g>
</svg>
